<?xml version="1.0" encoding="utf-8" standalone="no"?>
<!DOCTYPE svg PUBLIC "-//W3C//DTD SVG 1.1//EN"
  "http://www.w3.org/Graphics/SVG/1.1/DTD/svg11.dtd">
<!-- Created with matplotlib (http://matplotlib.org/) -->
<svg height="330pt" version="1.1" viewBox="0 0 372 330" width="372pt" xmlns="http://www.w3.org/2000/svg" xmlns:xlink="http://www.w3.org/1999/xlink">
 <defs>
  <style type="text/css">
*{stroke-linecap:butt;stroke-linejoin:round;}
  </style>
 </defs>
 <g id="figure_1">
  <g id="patch_1">
   <path d="M 0 330.687451 
L 372.635194 330.687451 
L 372.635194 0 
L 0 0 
z
" style="fill:#ffffff;"/>
  </g>
  <g id="axes_1">
   <g id="patch_2">
    <path d="M 39.606734 267.11781 
L 91.358266 267.11781 
L 91.358266 10.7 
L 39.606734 10.7 
z
" style="fill:none;"/>
   </g>
   <g id="matplotlib.axis_1"/>
   <g id="matplotlib.axis_2">
    <g id="text_1">
     <!-- $\theta$ -->
     <g transform="translate(33.221734 142.628905)rotate(-90)">
      <text>
       <tspan style="font-family:DejaVu Sans;font-size:12px;font-style:oblique;font-weight:oblique;" x="0" y="-0.78125">θ</tspan>
      </text>
     </g>
    </g>
   </g>
   <g id="line2d_1">
    <path clip-path="url(#p5fbae0d26f)" d="M 42.71585 267.11781 
L 42.847648 264.527731 
L 42.998597 261.937652 
L 43.170761 259.347573 
L 43.366296 256.757494 
L 43.587435 254.167416 
L 43.836468 251.577337 
L 44.115707 248.987258 
L 44.427465 246.397179 
L 44.77401 243.8071 
L 45.157526 241.217021 
L 45.580072 238.626942 
L 46.043525 236.036863 
L 46.549535 233.446784 
L 47.099464 230.856706 
L 47.694333 228.266627 
L 48.334765 225.676548 
L 49.020929 223.086469 
L 49.752486 220.49639 
L 50.52854 217.906311 
L 51.347597 215.316232 
L 52.207523 212.726153 
L 53.105519 210.136074 
L 54.038103 207.545996 
L 55.001099 204.955917 
L 55.989648 202.365838 
L 56.998224 199.775759 
L 58.020664 197.18568 
L 59.05022 194.595601 
L 60.07962 192.005522 
L 61.101139 189.415443 
L 62.106693 186.825364 
L 63.087936 184.235286 
L 64.036372 181.645207 
L 64.943474 179.055128 
L 65.800809 176.465049 
L 66.600169 173.87497 
L 67.333695 171.284891 
L 67.994014 168.694812 
L 68.574354 166.104733 
L 69.068663 163.514654 
L 69.471715 160.924576 
L 69.779199 158.334497 
L 69.987797 155.744418 
L 70.095245 153.154339 
L 70.100371 150.56426 
L 70.003121 147.974181 
L 69.804554 145.384102 
L 69.506827 142.794023 
L 69.113153 140.203944 
L 68.627749 137.613866 
L 68.055753 135.023787 
L 67.403138 132.433708 
L 66.67661 129.843629 
L 65.883487 127.25355 
L 65.031585 124.663471 
L 64.129083 122.073392 
L 63.184397 119.483313 
L 62.206051 116.893234 
L 61.202549 114.303156 
L 60.182257 111.713077 
L 59.153291 109.122998 
L 58.123415 106.532919 
L 57.099951 103.94284 
L 56.089702 101.352761 
L 55.09889 98.762682 
L 54.133109 96.172603 
L 53.197285 93.582524 
L 52.295662 90.992446 
L 51.431791 88.402367 
L 50.608541 85.812288 
L 49.828109 83.222209 
L 49.092052 80.63213 
L 48.401325 78.042051 
L 47.756319 75.451972 
L 47.156915 72.861893 
L 46.602532 70.271814 
L 46.092186 67.681736 
L 45.624547 65.091657 
L 45.197992 62.501578 
L 44.810663 59.911499 
L 44.460518 57.32142 
L 44.145382 54.731341 
L 43.862994 52.141262 
L 43.611045 49.551183 
L 43.38722 46.961104 
L 43.189227 44.371026 
L 43.014824 41.780947 
L 42.861848 39.190868 
L 42.728225 36.600789 
L 42.611992 34.01071 
L 42.511304 31.420631 
L 42.424439 28.830552 
L 42.349807 26.240473 
L 42.285945 23.650394 
L 42.231521 21.060316 
L 42.185328 18.470237 
L 42.146277 15.880158 
L 42.113397 13.290079 
L 42.085824 10.7 
" style="fill:none;stroke:#8c8c8c;stroke-dasharray:6.66,2.88;stroke-dashoffset:0;stroke-width:1.8;"/>
   </g>
   <g id="line2d_2">
    <path clip-path="url(#p5fbae0d26f)" d="M 41.959076 267.11781 
L 41.95919 264.527731 
L 41.959373 261.937652 
L 41.959663 259.347573 
L 41.96012 256.757494 
L 41.960831 254.167416 
L 41.961925 251.577337 
L 41.963591 248.987258 
L 41.9661 246.397179 
L 41.96984 243.8071 
L 41.975354 241.217021 
L 41.983395 238.626942 
L 41.994996 236.036863 
L 42.011551 233.446784 
L 42.03492 230.856706 
L 42.067546 228.266627 
L 42.1126 225.676548 
L 42.174128 223.086469 
L 42.257229 220.49639 
L 42.368217 217.906311 
L 42.514796 215.316232 
L 42.706202 212.726153 
L 42.953314 210.136074 
L 43.268708 207.545996 
L 43.666621 204.955917 
L 44.162816 202.365838 
L 44.774312 199.775759 
L 45.518964 197.18568 
L 46.414873 194.595601 
L 47.479625 192.005522 
L 48.729366 189.415443 
L 50.177729 186.825364 
L 51.834652 184.235286 
L 53.705151 181.645207 
L 55.788107 179.055128 
L 58.075155 176.465049 
L 60.549776 173.87497 
L 63.186675 171.284891 
L 65.951536 168.694812 
L 68.801237 166.104733 
L 71.684564 163.514654 
L 74.543447 160.924576 
L 77.314701 158.334497 
L 79.932218 155.744418 
L 82.329508 153.154339 
L 84.442461 150.56426 
L 86.212175 147.974181 
L 87.587672 145.384102 
L 88.528342 142.794023 
L 89.005924 140.203944 
L 89.005924 137.613866 
L 88.528342 135.023787 
L 87.587672 132.433708 
L 86.212175 129.843629 
L 84.442461 127.25355 
L 82.329508 124.663471 
L 79.932218 122.073392 
L 77.314701 119.483313 
L 74.543447 116.893234 
L 71.684564 114.303156 
L 68.801237 111.713077 
L 65.951536 109.122998 
L 63.186675 106.532919 
L 60.549776 103.94284 
L 58.075155 101.352761 
L 55.788107 98.762682 
L 53.705151 96.172603 
L 51.834652 93.582524 
L 50.177729 90.992446 
L 48.729366 88.402367 
L 47.479625 85.812288 
L 46.414873 83.222209 
L 45.518964 80.63213 
L 44.774312 78.042051 
L 44.162816 75.451972 
L 43.666621 72.861893 
L 43.268708 70.271814 
L 42.953314 67.681736 
L 42.706202 65.091657 
L 42.514796 62.501578 
L 42.368217 59.911499 
L 42.257229 57.32142 
L 42.174128 54.731341 
L 42.1126 52.141262 
L 42.067546 49.551183 
L 42.03492 46.961104 
L 42.011551 44.371026 
L 41.994996 41.780947 
L 41.983395 39.190868 
L 41.975354 36.600789 
L 41.96984 34.01071 
L 41.9661 31.420631 
L 41.963591 28.830552 
L 41.961925 26.240473 
L 41.960831 23.650394 
L 41.96012 21.060316 
L 41.959663 18.470237 
L 41.959373 15.880158 
L 41.95919 13.290079 
L 41.959076 10.7 
" style="fill:none;stroke:#000000;stroke-linecap:square;stroke-width:1.8;"/>
   </g>
   <g id="patch_3">
    <path d="M 39.606734 267.11781 
L 39.606734 10.7 
" style="fill:none;stroke:#000000;stroke-linecap:square;stroke-linejoin:miter;stroke-width:1.5;"/>
   </g>
   <g id="patch_4">
    <path d="M 39.606734 267.11781 
L 91.358266 267.11781 
" style="fill:none;stroke:#000000;stroke-linecap:square;stroke-linejoin:miter;stroke-width:1.5;"/>
   </g>
   <g id="legend_1">
    <g id="line2d_3">
     <path d="M 12 295.128076 
L 36 295.128076 
" style="fill:none;stroke:#8c8c8c;stroke-dasharray:6.66,2.88;stroke-dashoffset:0;stroke-width:1.8;"/>
    </g>
    <g id="line2d_4"/>
    <g id="text_2">
     <text style="font-family:Arial;font-size:12px;font-style:normal;font-weight:400;text-anchor:start;" transform="rotate(-0, 45.6, 299.328076)" x="45.6" y="299.328076">proposal prior</text>
    </g>
    <g id="line2d_5">
     <path d="M 12 312.102451 
L 36 312.102451 
" style="fill:none;stroke:#000000;stroke-linecap:square;stroke-width:1.8;"/>
    </g>
    <g id="line2d_6"/>
    <g id="text_3">
     <text style="font-family:Arial;font-size:12px;font-style:normal;font-weight:400;text-anchor:start;" transform="rotate(-0, 45.6, 316.302451)" x="45.6" y="316.302451">prior</text>
    </g>
   </g>
  </g>
  <g id="axes_2">
   <g id="patch_5">
    <path d="M 282.612865 267.11781 
L 334.364398 267.11781 
L 334.364398 10.7 
L 282.612865 10.7 
z
" style="fill:none;"/>
   </g>
   <g id="matplotlib.axis_3"/>
   <g id="matplotlib.axis_4"/>
   <g id="line2d_7">
    <path clip-path="url(#pb4a9d84bc8)" d="M 284.966104 267.11781 
L 284.966799 264.527731 
L 284.967991 261.937652 
L 284.969999 259.347573 
L 284.973328 256.757494 
L 284.978757 254.167416 
L 284.987464 251.577337 
L 285.0012 248.987258 
L 285.022512 246.397179 
L 285.055027 243.8071 
L 285.10381 241.217021 
L 285.175773 238.626942 
L 285.280141 236.036863 
L 285.428937 233.446784 
L 285.637449 230.856706 
L 285.924612 228.266627 
L 286.313219 225.676548 
L 286.829872 223.086469 
L 287.50456 220.49639 
L 288.369764 217.906311 
L 289.459005 215.316232 
L 290.804789 212.726153 
L 292.435975 210.136074 
L 294.374654 207.545996 
L 296.632719 204.955917 
L 299.208411 202.365838 
L 302.083185 199.775759 
L 305.219288 197.18568 
L 308.558466 194.595601 
L 312.022144 192.005522 
L 315.513338 189.415443 
L 318.920381 186.825364 
L 322.122374 184.235286 
L 324.996031 181.645207 
L 327.423427 179.055128 
L 329.299965 176.465049 
L 330.541837 173.87497 
L 331.092227 171.284891 
L 330.925616 168.694812 
L 330.049752 166.104733 
L 328.505044 163.514654 
L 326.361478 160.924576 
L 323.713355 158.334497 
L 320.672423 155.744418 
L 317.360085 153.154339 
L 313.899442 150.56426 
L 310.407894 147.974181 
L 306.990884 145.384102 
L 303.737221 142.794023 
L 300.716194 140.203944 
L 297.976486 137.613866 
L 295.546714 135.023787 
L 293.437293 132.433708 
L 291.643239 129.843629 
L 290.1475 127.25355 
L 288.924437 124.663471 
L 287.943139 122.073392 
L 287.170337 119.483313 
L 286.572773 116.893234 
L 286.118976 114.303156 
L 285.780445 111.713077 
L 285.532314 109.122998 
L 285.353591 106.532919 
L 285.227069 103.94284 
L 285.139027 101.352761 
L 285.078797 98.762682 
L 285.038287 96.172603 
L 285.011495 93.582524 
L 284.994071 90.992446 
L 284.982927 88.402367 
L 284.975917 85.812288 
L 284.97158 83.222209 
L 284.96894 80.63213 
L 284.96736 78.042051 
L 284.96643 75.451972 
L 284.96589 72.861893 
L 284.965583 70.271814 
L 284.965411 67.681736 
L 284.965316 65.091657 
L 284.965264 62.501578 
L 284.965237 59.911499 
L 284.965222 57.32142 
L 284.965215 54.731341 
L 284.965211 52.141262 
L 284.965209 49.551183 
L 284.965208 46.961104 
L 284.965208 44.371026 
L 284.965207 41.780947 
L 284.965207 39.190868 
L 284.965207 36.600789 
L 284.965207 34.01071 
L 284.965207 31.420631 
L 284.965207 28.830552 
L 284.965207 26.240473 
L 284.965207 23.650394 
L 284.965207 21.060316 
L 284.965207 18.470237 
L 284.965207 15.880158 
L 284.965207 13.290079 
L 284.965207 10.7 
" style="fill:none;stroke:#ff0000;stroke-linecap:square;stroke-width:1.8;"/>
   </g>
   <g id="line2d_8">
    <path clip-path="url(#pb4a9d84bc8)" d="M 284.965878 267.11781 
L 284.966422 264.527731 
L 284.967371 261.937652 
L 284.969001 259.347573 
L 284.971751 256.757494 
L 284.976311 254.167416 
L 284.983748 251.577337 
L 284.995665 248.987258 
L 285.014437 246.397179 
L 285.043497 243.8071 
L 285.087707 241.217021 
L 285.153795 238.626942 
L 285.250861 236.036863 
L 285.390919 233.446784 
L 285.589432 230.856706 
L 285.865774 228.266627 
L 286.243527 225.676548 
L 286.750514 223.086469 
L 287.418421 220.49639 
L 288.281914 217.906311 
L 289.377133 215.316232 
L 290.739498 212.726153 
L 292.400847 210.136074 
L 294.385999 207.545996 
L 296.708928 204.955917 
L 299.368883 202.365838 
L 302.346828 199.775759 
L 305.60268 197.18568 
L 309.073811 194.595601 
L 312.675231 192.005522 
L 316.301747 189.415443 
L 319.832199 186.825364 
L 323.135653 184.235286 
L 326.079165 181.645207 
L 328.53652 179.055128 
L 330.397149 176.465049 
L 331.574366 173.87497 
L 332.012055 171.284891 
L 331.689109 168.694812 
L 330.621114 166.104733 
L 328.859105 163.514654 
L 326.485521 160.924576 
L 323.607813 158.334497 
L 320.350394 155.744418 
L 316.845763 153.154339 
L 313.22569 150.56426 
L 309.613257 147.974181 
L 306.1164 145.384102 
L 302.823357 142.794023 
L 299.800201 140.203944 
L 297.09037 137.613866 
L 294.715936 135.023787 
L 292.680206 132.433708 
L 290.971189 129.843629 
L 289.565457 127.25355 
L 288.432002 124.663471 
L 287.535746 122.073392 
L 286.840502 119.483313 
L 286.311266 116.893234 
L 285.91583 114.303156 
L 285.625751 111.713077 
L 285.416797 109.122998 
L 285.268971 106.532919 
L 285.166245 103.94284 
L 285.096116 101.352761 
L 285.049077 98.762682 
L 285.018076 96.172603 
L 284.997997 93.582524 
L 284.985216 90.992446 
L 284.97722 88.402367 
L 284.972304 85.812288 
L 284.969332 83.222209 
L 284.967566 80.63213 
L 284.966534 78.042051 
L 284.965942 75.451972 
L 284.965607 72.861893 
L 284.965422 70.271814 
L 284.96532 67.681736 
L 284.965266 65.091657 
L 284.965237 62.501578 
L 284.965222 59.911499 
L 284.965215 57.32142 
L 284.965211 54.731341 
L 284.965209 52.141262 
L 284.965208 49.551183 
L 284.965208 46.961104 
L 284.965207 44.371026 
L 284.965207 41.780947 
L 284.965207 39.190868 
L 284.965207 36.600789 
L 284.965207 34.01071 
L 284.965207 31.420631 
L 284.965207 28.830552 
L 284.965207 26.240473 
L 284.965207 23.650394 
L 284.965207 21.060316 
L 284.965207 18.470237 
L 284.965207 15.880158 
L 284.965207 13.290079 
L 284.965207 10.7 
" style="fill:none;stroke:#00aeef;stroke-linecap:square;stroke-width:1.8;"/>
   </g>
   <g id="patch_6">
    <path d="M 282.612865 267.11781 
L 282.612865 10.7 
" style="fill:none;stroke:#000000;stroke-linecap:square;stroke-linejoin:miter;stroke-width:1.5;"/>
   </g>
   <g id="patch_7">
    <path d="M 282.612865 267.11781 
L 334.364398 267.11781 
" style="fill:none;stroke:#000000;stroke-linecap:square;stroke-linejoin:miter;stroke-width:1.5;"/>
   </g>
   <g id="legend_2">
    <g id="line2d_9">
     <path d="M 256.342069 295.128076 
L 280.342069 295.128076 
" style="fill:none;stroke:#ff0000;stroke-linecap:square;stroke-width:1.8;"/>
    </g>
    <g id="line2d_10"/>
    <g id="text_4">
     <text style="font-family:Arial;font-size:12px;font-style:normal;font-weight:400;text-anchor:start;" transform="rotate(-0, 289.942069, 299.328076)" x="289.942069" y="299.328076">true posterior</text>
    </g>
    <g id="line2d_11">
     <path d="M 256.342069 312.102451 
L 280.342069 312.102451 
" style="fill:none;stroke:#00aeef;stroke-linecap:square;stroke-width:1.8;"/>
    </g>
    <g id="line2d_12"/>
    <g id="text_5">
     <text style="font-family:Arial;font-size:12px;font-style:normal;font-weight:400;text-anchor:start;" transform="rotate(-0, 289.942069, 316.302451)" x="289.942069" y="316.302451">posterior</text>
    </g>
   </g>
  </g>
  <g id="axes_3">
   <g id="patch_8">
    <path d="M 109.358266 267.11781 
L 264.612865 267.11781 
L 264.612865 10.7 
L 109.358266 10.7 
z
" style="fill:none;"/>
   </g>
   <g id="PolyCollection_1">
    <path clip-path="url(#p33fd664f7e)" d="M 109.358266 210.696007 
L 109.358266 278.764749 
L 110.994794 278.5297 
L 112.631321 278.054103 
L 114.267848 277.33053 
L 115.904375 276.35476 
L 117.540902 275.131708 
L 119.177429 273.679743 
L 120.813957 272.032403 
L 122.450484 270.237512 
L 124.087011 268.35172 
L 125.723538 266.432011 
L 127.360065 264.524198 
L 128.996592 262.654342 
L 130.633119 260.827671 
L 132.269647 259.035106 
L 133.906174 257.263652 
L 135.542701 255.504428 
L 137.179228 253.754019 
L 138.815755 252.011597 
L 140.452282 250.27646 
L 142.08881 248.547295 
L 143.725337 246.823905 
L 145.361864 245.10797 
L 146.998391 243.402555 
L 148.634918 241.710779 
L 150.271445 240.034339 
L 151.907973 238.373504 
L 153.5445 236.727554 
L 155.181027 235.095652 
L 156.817554 233.477363 
L 158.454081 231.872629 
L 160.090608 230.281392 
L 161.727136 228.703355 
L 163.363663 227.137894 
L 165.00019 225.584375 
L 166.636717 224.042399 
L 168.273244 222.511979 
L 169.909771 220.993309 
L 171.546299 219.486458 
L 173.182826 217.991244 
L 174.819353 216.507316 
L 176.45588 215.034341 
L 178.092407 213.572189 
L 179.728934 212.120849 
L 181.365461 210.680252 
L 183.001989 209.250096 
L 184.638516 207.829841 
L 186.275043 206.418837 
L 187.91157 205.016504 
L 189.548097 203.622453 
L 191.184624 202.236506 
L 192.821152 200.858623 
L 194.457679 199.488817 
L 196.094206 198.127082 
L 197.730733 196.773364 
L 199.36726 195.427559 
L 201.003787 194.089513 
L 202.640315 192.759023 
L 204.276842 191.435864 
L 205.913369 190.119801 
L 207.549896 188.810622 
L 209.186423 187.508142 
L 210.82295 186.212204 
L 212.459478 184.922663 
L 214.096005 183.639382 
L 215.732532 182.362233 
L 217.369059 181.091092 
L 219.005586 179.825831 
L 220.642113 178.566321 
L 222.27864 177.312451 
L 223.915168 176.06416 
L 225.551695 174.821459 
L 227.188222 173.584413 
L 228.824749 172.353084 
L 230.461276 171.127471 
L 232.097803 169.907499 
L 233.734331 168.69304 
L 235.370858 167.483956 
L 237.007385 166.280106 
L 238.643912 165.081306 
L 240.280439 163.887317 
L 241.916966 162.69785 
L 243.553494 161.512654 
L 245.190021 160.331586 
L 246.826548 159.154646 
L 248.463075 157.981949 
L 250.099602 156.813661 
L 251.736129 155.649963 
L 253.372657 154.491055 
L 255.009184 153.337193 
L 256.645711 152.188846 
L 258.282238 151.047239 
L 259.918765 149.9156 
L 261.555292 148.801485 
L 263.191819 147.720219 
L 264.828347 146.698712 
L 266.464874 145.777819 
L 268.101401 145.010735 
L 269.737928 144.455616 
L 271.374455 144.163168 
L 271.374455 60.711679 
L 271.374455 60.711679 
L 269.737928 61.000931 
L 268.101401 61.550849 
L 266.464874 62.312674 
L 264.828347 63.230245 
L 263.191819 64.251718 
L 261.555292 65.336513 
L 259.918765 66.456969 
L 258.282238 67.596372 
L 256.645711 68.745719 
L 255.009184 69.900711 
L 253.372657 71.059633 
L 251.736129 72.22204 
L 250.099602 73.388056 
L 248.463075 74.558057 
L 246.826548 75.732564 
L 245.190021 76.912158 
L 243.553494 78.097375 
L 241.916966 79.288552 
L 240.280439 80.485673 
L 238.643912 81.688353 
L 237.007385 82.89599 
L 235.370858 84.108036 
L 233.734331 85.324219 
L 232.097803 86.54465 
L 230.461276 87.769746 
L 228.824749 89.000058 
L 227.188222 90.236081 
L 225.551695 91.478128 
L 223.915168 92.726319 
L 222.27864 93.980651 
L 220.642113 95.241115 
L 219.005586 96.507785 
L 217.369059 97.780838 
L 215.732532 99.060512 
L 214.096005 100.347028 
L 212.459478 101.64054 
L 210.82295 102.941137 
L 209.186423 104.248873 
L 207.549896 105.563798 
L 205.913369 106.885948 
L 204.276842 108.215341 
L 202.640315 109.551989 
L 201.003787 110.895972 
L 199.36726 112.247502 
L 197.730733 113.606946 
L 196.094206 114.974778 
L 194.457679 116.351491 
L 192.821152 117.737534 
L 191.184624 119.133288 
L 189.548097 120.539053 
L 187.91157 121.955034 
L 186.275043 123.381326 
L 184.638516 124.817933 
L 183.001989 126.264838 
L 181.365461 127.722098 
L 179.728934 129.189903 
L 178.092407 130.668571 
L 176.45588 132.15852 
L 174.819353 133.660209 
L 173.182826 135.174096 
L 171.546299 136.70061 
L 169.909771 138.240149 
L 168.273244 139.793128 
L 166.636717 141.360104 
L 165.00019 142.941925 
L 163.363663 144.539799 
L 161.727136 146.155178 
L 160.090608 147.789481 
L 158.454081 149.443736 
L 156.817554 151.118361 
L 155.181027 152.813185 
L 153.5445 154.527744 
L 151.907973 156.261741 
L 150.271445 158.015595 
L 148.634918 159.790777 
L 146.998391 161.58998 
L 145.361864 163.416718 
L 143.725337 165.274651 
L 142.08881 167.166722 
L 140.452282 169.094617 
L 138.815755 171.058966 
L 137.179228 173.0603 
L 135.542701 175.100307 
L 133.906174 177.182867 
L 132.269647 179.314331 
L 130.633119 181.50279 
L 128.996592 183.756845 
L 127.360065 186.083984 
L 125.723538 188.48937 
L 124.087011 190.974887 
L 122.450484 193.537423 
L 120.813957 196.165768 
L 119.177429 198.834785 
L 117.540902 201.496831 
L 115.904375 204.071799 
L 114.267848 206.440112 
L 112.631321 208.445673 
L 110.994794 209.915453 
L 109.358266 210.696007 
z
" style="fill:#ff0000;fill-opacity:0.15;"/>
   </g>
   <g id="matplotlib.axis_5">
    <g id="xtick_1">
     <g id="line2d_13">
      <defs>
       <path d="M 0 0 
L 0 3.5 
" id="m992cd7212a" style="stroke:#000000;stroke-width:1.5;"/>
      </defs>
      <g>
       <use style="stroke:#000000;stroke-width:1.5;" x="179.728934" xlink:href="#m992cd7212a" y="267.11781"/>
      </g>
     </g>
     <g id="text_6">
      <!-- $x_{o}$ -->
      <g transform="translate(173.428934 282.707185)">
       <text>
        <tspan style="font-family:DejaVu Sans;font-size:12px;font-style:oblique;font-weight:oblique;" x="0" y="-0.4375">x</tspan>
        <tspan style="font-family:DejaVu Sans;font-size:8.4px;font-style:oblique;font-weight:oblique;" x="7.101562" y="1.53125">o</tspan>
       </text>
      </g>
     </g>
    </g>
    <g id="text_7">
     <text style="font-family:Arial;font-size:12px;font-style:normal;font-weight:400;text-anchor:middle;" transform="rotate(-0, 186.985566, 297.68156)" x="186.985566" y="297.68156">x</text>
    </g>
   </g>
   <g id="matplotlib.axis_6"/>
   <g id="LineCollection_1">
    <path clip-path="url(#p33fd664f7e)" d="M 179.728934 267.11781 
L 179.728934 -1 
" style="fill:none;stroke:#2356a7;stroke-width:2;"/>
   </g>
   <g id="LineCollection_2">
    <path clip-path="url(#p33fd664f7e)" d="M 165.00019 267.11781 
L 165.00019 -1 
" style="fill:none;stroke:#404040;"/>
   </g>
   <g id="LineCollection_3">
    <path clip-path="url(#p33fd664f7e)" d="M 194.457679 267.11781 
L 194.457679 -1 
" style="fill:none;stroke:#404040;"/>
   </g>
   <g id="line2d_14">
    <defs>
     <path d="M 0 0.75 
C 0.198902 0.75 0.389685 0.670975 0.53033 0.53033 
C 0.670975 0.389685 0.75 0.198902 0.75 0 
C 0.75 -0.198902 0.670975 -0.389685 0.53033 -0.53033 
C 0.389685 -0.670975 0.198902 -0.75 0 -0.75 
C -0.198902 -0.75 -0.389685 -0.670975 -0.53033 -0.53033 
C -0.670975 -0.389685 -0.75 -0.198902 -0.75 0 
C -0.75 0.198902 -0.670975 0.389685 -0.53033 0.53033 
C -0.389685 0.670975 -0.198902 0.75 0 0.75 
z
" id="mc69ea52742" style="stroke:#8c8c8c;"/>
    </defs>
    <g clip-path="url(#p33fd664f7e)">
     <use style="fill:#8c8c8c;stroke:#8c8c8c;" x="186.081399" xlink:href="#mc69ea52742" y="195.132868"/>
     <use style="fill:#8c8c8c;stroke:#8c8c8c;" x="188.888356" xlink:href="#mc69ea52742" y="191.120658"/>
     <use style="fill:#8c8c8c;stroke:#8c8c8c;" x="217.427273" xlink:href="#mc69ea52742" y="133.78347"/>
     <use style="fill:#8c8c8c;stroke:#8c8c8c;" x="212.247994" xlink:href="#mc69ea52742" y="162.997865"/>
     <use style="fill:#8c8c8c;stroke:#8c8c8c;" x="208.678314" xlink:href="#mc69ea52742" y="173.816814"/>
     <use style="fill:#8c8c8c;stroke:#8c8c8c;" x="227.087323" xlink:href="#mc69ea52742" y="167.544202"/>
     <use style="fill:#8c8c8c;stroke:#8c8c8c;" x="179.369789" xlink:href="#mc69ea52742" y="201.799582"/>
     <use style="fill:#8c8c8c;stroke:#8c8c8c;" x="209.206075" xlink:href="#mc69ea52742" y="168.191189"/>
     <use style="fill:#8c8c8c;stroke:#8c8c8c;" x="177.84832" xlink:href="#mc69ea52742" y="200.560979"/>
     <use style="fill:#8c8c8c;stroke:#8c8c8c;" x="208.926945" xlink:href="#mc69ea52742" y="144.729209"/>
     <use style="fill:#8c8c8c;stroke:#8c8c8c;" x="185.068763" xlink:href="#mc69ea52742" y="169.415932"/>
     <use style="fill:#8c8c8c;stroke:#8c8c8c;" x="135.086332" xlink:href="#mc69ea52742" y="269.586195"/>
     <use style="fill:#8c8c8c;stroke:#8c8c8c;" x="226.592607" xlink:href="#mc69ea52742" y="117.208158"/>
     <use style="fill:#8c8c8c;stroke:#8c8c8c;" x="225.579446" xlink:href="#mc69ea52742" y="149.887782"/>
     <use style="fill:#8c8c8c;stroke:#8c8c8c;" x="251.208011" xlink:href="#mc69ea52742" y="57.226208"/>
     <use style="fill:#8c8c8c;stroke:#8c8c8c;" x="204.327899" xlink:href="#mc69ea52742" y="157.033266"/>
     <use style="fill:#8c8c8c;stroke:#8c8c8c;" x="186.935271" xlink:href="#mc69ea52742" y="203.303295"/>
     <use style="fill:#8c8c8c;stroke:#8c8c8c;" x="194.498579" xlink:href="#mc69ea52742" y="149.771627"/>
     <use style="fill:#8c8c8c;stroke:#8c8c8c;" x="207.451136" xlink:href="#mc69ea52742" y="130.019684"/>
     <use style="fill:#8c8c8c;stroke:#8c8c8c;" x="186.864019" xlink:href="#mc69ea52742" y="213.34404"/>
     <use style="fill:#8c8c8c;stroke:#8c8c8c;" x="202.858866" xlink:href="#mc69ea52742" y="131.774058"/>
     <use style="fill:#8c8c8c;stroke:#8c8c8c;" x="195.912978" xlink:href="#mc69ea52742" y="162.325879"/>
     <use style="fill:#8c8c8c;stroke:#8c8c8c;" x="232.428788" xlink:href="#mc69ea52742" y="143.583118"/>
     <use style="fill:#8c8c8c;stroke:#8c8c8c;" x="224.932843" xlink:href="#mc69ea52742" y="155.774364"/>
     <use style="fill:#8c8c8c;stroke:#8c8c8c;" x="227.450846" xlink:href="#mc69ea52742" y="127.345479"/>
     <use style="fill:#8c8c8c;stroke:#8c8c8c;" x="196.423276" xlink:href="#mc69ea52742" y="154.254466"/>
     <use style="fill:#8c8c8c;stroke:#8c8c8c;" x="195.216203" xlink:href="#mc69ea52742" y="178.83911"/>
     <use style="fill:#8c8c8c;stroke:#8c8c8c;" x="266.962469" xlink:href="#mc69ea52742" y="61.254343"/>
     <use style="fill:#8c8c8c;stroke:#8c8c8c;" x="208.450563" xlink:href="#mc69ea52742" y="165.325446"/>
     <use style="fill:#8c8c8c;stroke:#8c8c8c;" x="251.250084" xlink:href="#mc69ea52742" y="43.278929"/>
     <use style="fill:#8c8c8c;stroke:#8c8c8c;" x="200.876806" xlink:href="#mc69ea52742" y="160.054246"/>
     <use style="fill:#8c8c8c;stroke:#8c8c8c;" x="252.70512" xlink:href="#mc69ea52742" y="119.922128"/>
     <use style="fill:#8c8c8c;stroke:#8c8c8c;" x="183.645964" xlink:href="#mc69ea52742" y="190.388235"/>
     <use style="fill:#8c8c8c;stroke:#8c8c8c;" x="211.066392" xlink:href="#mc69ea52742" y="152.494993"/>
     <use style="fill:#8c8c8c;stroke:#8c8c8c;" x="201.920992" xlink:href="#mc69ea52742" y="161.622998"/>
     <use style="fill:#8c8c8c;stroke:#8c8c8c;" x="165.592245" xlink:href="#mc69ea52742" y="233.847576"/>
     <use style="fill:#8c8c8c;stroke:#8c8c8c;" x="233.745561" xlink:href="#mc69ea52742" y="134.086399"/>
     <use style="fill:#8c8c8c;stroke:#8c8c8c;" x="207.2054" xlink:href="#mc69ea52742" y="169.69121"/>
     <use style="fill:#8c8c8c;stroke:#8c8c8c;" x="203.875445" xlink:href="#mc69ea52742" y="187.693841"/>
     <use style="fill:#8c8c8c;stroke:#8c8c8c;" x="175.353207" xlink:href="#mc69ea52742" y="194.778213"/>
     <use style="fill:#8c8c8c;stroke:#8c8c8c;" x="127.294763" xlink:href="#mc69ea52742" y="260.403799"/>
     <use style="fill:#8c8c8c;stroke:#8c8c8c;" x="200.173208" xlink:href="#mc69ea52742" y="190.713219"/>
     <use style="fill:#8c8c8c;stroke:#8c8c8c;" x="203.003555" xlink:href="#mc69ea52742" y="135.524417"/>
     <use style="fill:#8c8c8c;stroke:#8c8c8c;" x="226.272766" xlink:href="#mc69ea52742" y="105.302407"/>
     <use style="fill:#8c8c8c;stroke:#8c8c8c;" x="245.605181" xlink:href="#mc69ea52742" y="83.178164"/>
     <use style="fill:#8c8c8c;stroke:#8c8c8c;" x="181.299697" xlink:href="#mc69ea52742" y="210.828222"/>
     <use style="fill:#8c8c8c;stroke:#8c8c8c;" x="162.869692" xlink:href="#mc69ea52742" y="237.055531"/>
     <use style="fill:#8c8c8c;stroke:#8c8c8c;" x="201.340354" xlink:href="#mc69ea52742" y="190.057494"/>
     <use style="fill:#8c8c8c;stroke:#8c8c8c;" x="215.358499" xlink:href="#mc69ea52742" y="148.827748"/>
     <use style="fill:#8c8c8c;stroke:#8c8c8c;" x="234.579234" xlink:href="#mc69ea52742" y="121.658474"/>
     <use style="fill:#8c8c8c;stroke:#8c8c8c;" x="230.502487" xlink:href="#mc69ea52742" y="133.173022"/>
     <use style="fill:#8c8c8c;stroke:#8c8c8c;" x="200.23728" xlink:href="#mc69ea52742" y="149.852133"/>
     <use style="fill:#8c8c8c;stroke:#8c8c8c;" x="212.836692" xlink:href="#mc69ea52742" y="195.876366"/>
     <use style="fill:#8c8c8c;stroke:#8c8c8c;" x="197.440501" xlink:href="#mc69ea52742" y="167.068336"/>
     <use style="fill:#8c8c8c;stroke:#8c8c8c;" x="207.015186" xlink:href="#mc69ea52742" y="159.26441"/>
     <use style="fill:#8c8c8c;stroke:#8c8c8c;" x="201.958191" xlink:href="#mc69ea52742" y="218.960956"/>
     <use style="fill:#8c8c8c;stroke:#8c8c8c;" x="216.472088" xlink:href="#mc69ea52742" y="152.305647"/>
     <use style="fill:#8c8c8c;stroke:#8c8c8c;" x="259.907412" xlink:href="#mc69ea52742" y="66.403103"/>
     <use style="fill:#8c8c8c;stroke:#8c8c8c;" x="254.894827" xlink:href="#mc69ea52742" y="131.719824"/>
     <use style="fill:#8c8c8c;stroke:#8c8c8c;" x="218.249589" xlink:href="#mc69ea52742" y="149.956152"/>
     <use style="fill:#8c8c8c;stroke:#8c8c8c;" x="211.935102" xlink:href="#mc69ea52742" y="136.497259"/>
     <use style="fill:#8c8c8c;stroke:#8c8c8c;" x="172.016696" xlink:href="#mc69ea52742" y="241.834673"/>
     <use style="fill:#8c8c8c;stroke:#8c8c8c;" x="214.075152" xlink:href="#mc69ea52742" y="176.624617"/>
     <use style="fill:#8c8c8c;stroke:#8c8c8c;" x="209.854341" xlink:href="#mc69ea52742" y="115.816162"/>
     <use style="fill:#8c8c8c;stroke:#8c8c8c;" x="233.685595" xlink:href="#mc69ea52742" y="97.854388"/>
     <use style="fill:#8c8c8c;stroke:#8c8c8c;" x="171.360016" xlink:href="#mc69ea52742" y="216.746503"/>
     <use style="fill:#8c8c8c;stroke:#8c8c8c;" x="247.624292" xlink:href="#mc69ea52742" y="90.686552"/>
     <use style="fill:#8c8c8c;stroke:#8c8c8c;" x="277.232519" xlink:href="#mc69ea52742" y="141.060935"/>
     <use style="fill:#8c8c8c;stroke:#8c8c8c;" x="210.189836" xlink:href="#mc69ea52742" y="174.739862"/>
     <use style="fill:#8c8c8c;stroke:#8c8c8c;" x="211.498815" xlink:href="#mc69ea52742" y="160.052569"/>
     <use style="fill:#8c8c8c;stroke:#8c8c8c;" x="242.091277" xlink:href="#mc69ea52742" y="85.070942"/>
     <use style="fill:#8c8c8c;stroke:#8c8c8c;" x="202.021326" xlink:href="#mc69ea52742" y="183.807589"/>
     <use style="fill:#8c8c8c;stroke:#8c8c8c;" x="218.022568" xlink:href="#mc69ea52742" y="148.690342"/>
     <use style="fill:#8c8c8c;stroke:#8c8c8c;" x="217.220032" xlink:href="#mc69ea52742" y="175.671535"/>
     <use style="fill:#8c8c8c;stroke:#8c8c8c;" x="244.804441" xlink:href="#mc69ea52742" y="126.047746"/>
     <use style="fill:#8c8c8c;stroke:#8c8c8c;" x="211.436876" xlink:href="#mc69ea52742" y="218.405231"/>
     <use style="fill:#8c8c8c;stroke:#8c8c8c;" x="222.883513" xlink:href="#mc69ea52742" y="146.751169"/>
     <use style="fill:#8c8c8c;stroke:#8c8c8c;" x="233.353518" xlink:href="#mc69ea52742" y="146.398063"/>
     <use style="fill:#8c8c8c;stroke:#8c8c8c;" x="213.155209" xlink:href="#mc69ea52742" y="137.859972"/>
     <use style="fill:#8c8c8c;stroke:#8c8c8c;" x="230.633127" xlink:href="#mc69ea52742" y="85.814348"/>
     <use style="fill:#8c8c8c;stroke:#8c8c8c;" x="204.516442" xlink:href="#mc69ea52742" y="137.104585"/>
     <use style="fill:#8c8c8c;stroke:#8c8c8c;" x="205.712193" xlink:href="#mc69ea52742" y="174.827674"/>
     <use style="fill:#8c8c8c;stroke:#8c8c8c;" x="179.160538" xlink:href="#mc69ea52742" y="190.745976"/>
     <use style="fill:#8c8c8c;stroke:#8c8c8c;" x="202.227495" xlink:href="#mc69ea52742" y="199.228799"/>
     <use style="fill:#8c8c8c;stroke:#8c8c8c;" x="218.74703" xlink:href="#mc69ea52742" y="147.536473"/>
     <use style="fill:#8c8c8c;stroke:#8c8c8c;" x="199.306917" xlink:href="#mc69ea52742" y="153.682402"/>
     <use style="fill:#8c8c8c;stroke:#8c8c8c;" x="267.790209" xlink:href="#mc69ea52742" y="40.45883"/>
     <use style="fill:#8c8c8c;stroke:#8c8c8c;" x="211.530223" xlink:href="#mc69ea52742" y="166.860387"/>
     <use style="fill:#8c8c8c;stroke:#8c8c8c;" x="195.605189" xlink:href="#mc69ea52742" y="168.781098"/>
     <use style="fill:#8c8c8c;stroke:#8c8c8c;" x="267.701943" xlink:href="#mc69ea52742" y="66.211961"/>
     <use style="fill:#8c8c8c;stroke:#8c8c8c;" x="267.348094" xlink:href="#mc69ea52742" y="48.456667"/>
     <use style="fill:#8c8c8c;stroke:#8c8c8c;" x="182.901892" xlink:href="#mc69ea52742" y="168.898235"/>
     <use style="fill:#8c8c8c;stroke:#8c8c8c;" x="201.155174" xlink:href="#mc69ea52742" y="100.927267"/>
     <use style="fill:#8c8c8c;stroke:#8c8c8c;" x="193.570708" xlink:href="#mc69ea52742" y="161.68609"/>
     <use style="fill:#8c8c8c;stroke:#8c8c8c;" x="226.906461" xlink:href="#mc69ea52742" y="106.453893"/>
     <use style="fill:#8c8c8c;stroke:#8c8c8c;" x="238.492659" xlink:href="#mc69ea52742" y="89.613968"/>
     <use style="fill:#8c8c8c;stroke:#8c8c8c;" x="228.826261" xlink:href="#mc69ea52742" y="132.391024"/>
     <use style="fill:#8c8c8c;stroke:#8c8c8c;" x="217.967308" xlink:href="#mc69ea52742" y="126.815945"/>
     <use style="fill:#8c8c8c;stroke:#8c8c8c;" x="206.706136" xlink:href="#mc69ea52742" y="167.133967"/>
     <use style="fill:#8c8c8c;stroke:#8c8c8c;" x="230.718857" xlink:href="#mc69ea52742" y="119.757545"/>
     <use style="fill:#8c8c8c;stroke:#8c8c8c;" x="252.780951" xlink:href="#mc69ea52742" y="120.589192"/>
     <use style="fill:#8c8c8c;stroke:#8c8c8c;" x="214.43554" xlink:href="#mc69ea52742" y="121.995216"/>
     <use style="fill:#8c8c8c;stroke:#8c8c8c;" x="228.380716" xlink:href="#mc69ea52742" y="97.477606"/>
     <use style="fill:#8c8c8c;stroke:#8c8c8c;" x="230.795849" xlink:href="#mc69ea52742" y="86.298761"/>
     <use style="fill:#8c8c8c;stroke:#8c8c8c;" x="213.191632" xlink:href="#mc69ea52742" y="155.922577"/>
     <use style="fill:#8c8c8c;stroke:#8c8c8c;" x="220.899014" xlink:href="#mc69ea52742" y="122.414305"/>
     <use style="fill:#8c8c8c;stroke:#8c8c8c;" x="193.218828" xlink:href="#mc69ea52742" y="162.628597"/>
     <use style="fill:#8c8c8c;stroke:#8c8c8c;" x="235.272324" xlink:href="#mc69ea52742" y="118.11103"/>
     <use style="fill:#8c8c8c;stroke:#8c8c8c;" x="236.954786" xlink:href="#mc69ea52742" y="116.380926"/>
     <use style="fill:#8c8c8c;stroke:#8c8c8c;" x="216.056704" xlink:href="#mc69ea52742" y="148.182481"/>
     <use style="fill:#8c8c8c;stroke:#8c8c8c;" x="196.842984" xlink:href="#mc69ea52742" y="153.330397"/>
     <use style="fill:#8c8c8c;stroke:#8c8c8c;" x="221.471055" xlink:href="#mc69ea52742" y="139.365542"/>
     <use style="fill:#8c8c8c;stroke:#8c8c8c;" x="201.302065" xlink:href="#mc69ea52742" y="126.731346"/>
     <use style="fill:#8c8c8c;stroke:#8c8c8c;" x="148.028997" xlink:href="#mc69ea52742" y="213.459056"/>
     <use style="fill:#8c8c8c;stroke:#8c8c8c;" x="204.209075" xlink:href="#mc69ea52742" y="169.951891"/>
     <use style="fill:#8c8c8c;stroke:#8c8c8c;" x="235.620942" xlink:href="#mc69ea52742" y="123.968813"/>
     <use style="fill:#8c8c8c;stroke:#8c8c8c;" x="150.577952" xlink:href="#mc69ea52742" y="236.731926"/>
     <use style="fill:#8c8c8c;stroke:#8c8c8c;" x="206.884301" xlink:href="#mc69ea52742" y="145.831259"/>
     <use style="fill:#8c8c8c;stroke:#8c8c8c;" x="174.005149" xlink:href="#mc69ea52742" y="204.843411"/>
     <use style="fill:#8c8c8c;stroke:#8c8c8c;" x="240.358655" xlink:href="#mc69ea52742" y="152.772951"/>
     <use style="fill:#8c8c8c;stroke:#8c8c8c;" x="187.761542" xlink:href="#mc69ea52742" y="182.799349"/>
     <use style="fill:#8c8c8c;stroke:#8c8c8c;" x="227.870319" xlink:href="#mc69ea52742" y="131.906994"/>
     <use style="fill:#8c8c8c;stroke:#8c8c8c;" x="211.891379" xlink:href="#mc69ea52742" y="172.743152"/>
     <use style="fill:#8c8c8c;stroke:#8c8c8c;" x="195.68188" xlink:href="#mc69ea52742" y="152.616085"/>
     <use style="fill:#8c8c8c;stroke:#8c8c8c;" x="218.18053" xlink:href="#mc69ea52742" y="112.154185"/>
     <use style="fill:#8c8c8c;stroke:#8c8c8c;" x="180.36357" xlink:href="#mc69ea52742" y="227.303124"/>
     <use style="fill:#8c8c8c;stroke:#8c8c8c;" x="192.828896" xlink:href="#mc69ea52742" y="171.056322"/>
     <use style="fill:#8c8c8c;stroke:#8c8c8c;" x="217.542046" xlink:href="#mc69ea52742" y="168.463997"/>
     <use style="fill:#8c8c8c;stroke:#8c8c8c;" x="263.412587" xlink:href="#mc69ea52742" y="59.625019"/>
     <use style="fill:#8c8c8c;stroke:#8c8c8c;" x="194.317171" xlink:href="#mc69ea52742" y="147.75465"/>
     <use style="fill:#8c8c8c;stroke:#8c8c8c;" x="206.978476" xlink:href="#mc69ea52742" y="113.321158"/>
     <use style="fill:#8c8c8c;stroke:#8c8c8c;" x="218.862807" xlink:href="#mc69ea52742" y="139.125495"/>
     <use style="fill:#8c8c8c;stroke:#8c8c8c;" x="212.066112" xlink:href="#mc69ea52742" y="132.564423"/>
     <use style="fill:#8c8c8c;stroke:#8c8c8c;" x="221.88958" xlink:href="#mc69ea52742" y="164.822507"/>
     <use style="fill:#8c8c8c;stroke:#8c8c8c;" x="227.035366" xlink:href="#mc69ea52742" y="156.684029"/>
     <use style="fill:#8c8c8c;stroke:#8c8c8c;" x="254.133494" xlink:href="#mc69ea52742" y="95.913218"/>
     <use style="fill:#8c8c8c;stroke:#8c8c8c;" x="218.813203" xlink:href="#mc69ea52742" y="102.465737"/>
     <use style="fill:#8c8c8c;stroke:#8c8c8c;" x="200.320427" xlink:href="#mc69ea52742" y="132.827504"/>
     <use style="fill:#8c8c8c;stroke:#8c8c8c;" x="207.485217" xlink:href="#mc69ea52742" y="159.484823"/>
     <use style="fill:#8c8c8c;stroke:#8c8c8c;" x="242.838071" xlink:href="#mc69ea52742" y="124.848446"/>
     <use style="fill:#8c8c8c;stroke:#8c8c8c;" x="230.282859" xlink:href="#mc69ea52742" y="157.65209"/>
     <use style="fill:#8c8c8c;stroke:#8c8c8c;" x="197.809596" xlink:href="#mc69ea52742" y="191.944876"/>
     <use style="fill:#8c8c8c;stroke:#8c8c8c;" x="185.316554" xlink:href="#mc69ea52742" y="197.236391"/>
     <use style="fill:#8c8c8c;stroke:#8c8c8c;" x="261.634778" xlink:href="#mc69ea52742" y="61.246754"/>
     <use style="fill:#8c8c8c;stroke:#8c8c8c;" x="240.049511" xlink:href="#mc69ea52742" y="91.857666"/>
     <use style="fill:#8c8c8c;stroke:#8c8c8c;" x="237.783678" xlink:href="#mc69ea52742" y="134.626254"/>
     <use style="fill:#8c8c8c;stroke:#8c8c8c;" x="212.81155" xlink:href="#mc69ea52742" y="135.247435"/>
     <use style="fill:#8c8c8c;stroke:#8c8c8c;" x="158.990945" xlink:href="#mc69ea52742" y="212.521017"/>
     <use style="fill:#8c8c8c;stroke:#8c8c8c;" x="224.029508" xlink:href="#mc69ea52742" y="77.321551"/>
     <use style="fill:#8c8c8c;stroke:#8c8c8c;" x="205.863573" xlink:href="#mc69ea52742" y="170.470975"/>
     <use style="fill:#8c8c8c;stroke:#8c8c8c;" x="215.847297" xlink:href="#mc69ea52742" y="114.920198"/>
     <use style="fill:#8c8c8c;stroke:#8c8c8c;" x="210.518278" xlink:href="#mc69ea52742" y="163.661533"/>
     <use style="fill:#8c8c8c;stroke:#8c8c8c;" x="173.151791" xlink:href="#mc69ea52742" y="169.457987"/>
     <use style="fill:#8c8c8c;stroke:#8c8c8c;" x="202.08295" xlink:href="#mc69ea52742" y="133.485885"/>
     <use style="fill:#8c8c8c;stroke:#8c8c8c;" x="213.633692" xlink:href="#mc69ea52742" y="139.107687"/>
     <use style="fill:#8c8c8c;stroke:#8c8c8c;" x="223.550568" xlink:href="#mc69ea52742" y="106.53929"/>
     <use style="fill:#8c8c8c;stroke:#8c8c8c;" x="176.830722" xlink:href="#mc69ea52742" y="199.152831"/>
     <use style="fill:#8c8c8c;stroke:#8c8c8c;" x="156.682513" xlink:href="#mc69ea52742" y="231.241917"/>
     <use style="fill:#8c8c8c;stroke:#8c8c8c;" x="248.322761" xlink:href="#mc69ea52742" y="137.973862"/>
     <use style="fill:#8c8c8c;stroke:#8c8c8c;" x="190.182806" xlink:href="#mc69ea52742" y="164.696978"/>
     <use style="fill:#8c8c8c;stroke:#8c8c8c;" x="206.519904" xlink:href="#mc69ea52742" y="157.127416"/>
     <use style="fill:#8c8c8c;stroke:#8c8c8c;" x="211.804369" xlink:href="#mc69ea52742" y="147.491225"/>
     <use style="fill:#8c8c8c;stroke:#8c8c8c;" x="259.857791" xlink:href="#mc69ea52742" y="98.247177"/>
     <use style="fill:#8c8c8c;stroke:#8c8c8c;" x="203.895627" xlink:href="#mc69ea52742" y="151.435322"/>
     <use style="fill:#8c8c8c;stroke:#8c8c8c;" x="233.637832" xlink:href="#mc69ea52742" y="100.495741"/>
     <use style="fill:#8c8c8c;stroke:#8c8c8c;" x="195.502261" xlink:href="#mc69ea52742" y="188.105364"/>
     <use style="fill:#8c8c8c;stroke:#8c8c8c;" x="194.474061" xlink:href="#mc69ea52742" y="190.93626"/>
     <use style="fill:#8c8c8c;stroke:#8c8c8c;" x="202.310207" xlink:href="#mc69ea52742" y="196.072289"/>
     <use style="fill:#8c8c8c;stroke:#8c8c8c;" x="174.789101" xlink:href="#mc69ea52742" y="234.145924"/>
     <use style="fill:#8c8c8c;stroke:#8c8c8c;" x="200.922036" xlink:href="#mc69ea52742" y="188.726283"/>
     <use style="fill:#8c8c8c;stroke:#8c8c8c;" x="235.497482" xlink:href="#mc69ea52742" y="116.815562"/>
     <use style="fill:#8c8c8c;stroke:#8c8c8c;" x="217.829189" xlink:href="#mc69ea52742" y="140.858041"/>
     <use style="fill:#8c8c8c;stroke:#8c8c8c;" x="215.705222" xlink:href="#mc69ea52742" y="166.216267"/>
     <use style="fill:#8c8c8c;stroke:#8c8c8c;" x="187.48252" xlink:href="#mc69ea52742" y="161.719185"/>
     <use style="fill:#8c8c8c;stroke:#8c8c8c;" x="225.323926" xlink:href="#mc69ea52742" y="155.928396"/>
     <use style="fill:#8c8c8c;stroke:#8c8c8c;" x="168.740964" xlink:href="#mc69ea52742" y="231.452818"/>
     <use style="fill:#8c8c8c;stroke:#8c8c8c;" x="240.710768" xlink:href="#mc69ea52742" y="161.202114"/>
     <use style="fill:#8c8c8c;stroke:#8c8c8c;" x="210.626539" xlink:href="#mc69ea52742" y="180.149252"/>
     <use style="fill:#8c8c8c;stroke:#8c8c8c;" x="260.534814" xlink:href="#mc69ea52742" y="88.407769"/>
     <use style="fill:#8c8c8c;stroke:#8c8c8c;" x="218.925182" xlink:href="#mc69ea52742" y="144.030371"/>
     <use style="fill:#8c8c8c;stroke:#8c8c8c;" x="207.603265" xlink:href="#mc69ea52742" y="169.494116"/>
     <use style="fill:#8c8c8c;stroke:#8c8c8c;" x="217.368996" xlink:href="#mc69ea52742" y="167.853184"/>
     <use style="fill:#8c8c8c;stroke:#8c8c8c;" x="147.311293" xlink:href="#mc69ea52742" y="206.92304"/>
     <use style="fill:#8c8c8c;stroke:#8c8c8c;" x="202.243975" xlink:href="#mc69ea52742" y="207.621219"/>
     <use style="fill:#8c8c8c;stroke:#8c8c8c;" x="232.49013" xlink:href="#mc69ea52742" y="132.480492"/>
     <use style="fill:#8c8c8c;stroke:#8c8c8c;" x="172.084512" xlink:href="#mc69ea52742" y="175.981383"/>
     <use style="fill:#8c8c8c;stroke:#8c8c8c;" x="237.456721" xlink:href="#mc69ea52742" y="100.40261"/>
     <use style="fill:#8c8c8c;stroke:#8c8c8c;" x="195.525699" xlink:href="#mc69ea52742" y="190.978108"/>
     <use style="fill:#8c8c8c;stroke:#8c8c8c;" x="241.204917" xlink:href="#mc69ea52742" y="152.416205"/>
     <use style="fill:#8c8c8c;stroke:#8c8c8c;" x="220.438881" xlink:href="#mc69ea52742" y="138.357639"/>
     <use style="fill:#8c8c8c;stroke:#8c8c8c;" x="226.909191" xlink:href="#mc69ea52742" y="159.518809"/>
     <use style="fill:#8c8c8c;stroke:#8c8c8c;" x="178.742196" xlink:href="#mc69ea52742" y="204.203696"/>
     <use style="fill:#8c8c8c;stroke:#8c8c8c;" x="174.048418" xlink:href="#mc69ea52742" y="188.834551"/>
     <use style="fill:#8c8c8c;stroke:#8c8c8c;" x="201.930235" xlink:href="#mc69ea52742" y="149.450369"/>
     <use style="fill:#8c8c8c;stroke:#8c8c8c;" x="211.56938" xlink:href="#mc69ea52742" y="145.61021"/>
     <use style="fill:#8c8c8c;stroke:#8c8c8c;" x="227.072768" xlink:href="#mc69ea52742" y="169.677542"/>
     <use style="fill:#8c8c8c;stroke:#8c8c8c;" x="216.068755" xlink:href="#mc69ea52742" y="107.966882"/>
     <use style="fill:#8c8c8c;stroke:#8c8c8c;" x="206.137487" xlink:href="#mc69ea52742" y="126.962287"/>
     <use style="fill:#8c8c8c;stroke:#8c8c8c;" x="192.204358" xlink:href="#mc69ea52742" y="193.684881"/>
     <use style="fill:#8c8c8c;stroke:#8c8c8c;" x="173.799576" xlink:href="#mc69ea52742" y="215.653317"/>
     <use style="fill:#8c8c8c;stroke:#8c8c8c;" x="222.428034" xlink:href="#mc69ea52742" y="116.616329"/>
     <use style="fill:#8c8c8c;stroke:#8c8c8c;" x="200.955926" xlink:href="#mc69ea52742" y="189.717918"/>
     <use style="fill:#8c8c8c;stroke:#8c8c8c;" x="201.911166" xlink:href="#mc69ea52742" y="146.613115"/>
     <use style="fill:#8c8c8c;stroke:#8c8c8c;" x="186.400187" xlink:href="#mc69ea52742" y="175.342733"/>
     <use style="fill:#8c8c8c;stroke:#8c8c8c;" x="179.683266" xlink:href="#mc69ea52742" y="204.971286"/>
     <use style="fill:#8c8c8c;stroke:#8c8c8c;" x="184.314926" xlink:href="#mc69ea52742" y="169.613833"/>
     <use style="fill:#8c8c8c;stroke:#8c8c8c;" x="202.27098" xlink:href="#mc69ea52742" y="192.74304"/>
     <use style="fill:#8c8c8c;stroke:#8c8c8c;" x="214.602605" xlink:href="#mc69ea52742" y="140.882852"/>
     <use style="fill:#8c8c8c;stroke:#8c8c8c;" x="223.494929" xlink:href="#mc69ea52742" y="173.133543"/>
     <use style="fill:#8c8c8c;stroke:#8c8c8c;" x="227.58454" xlink:href="#mc69ea52742" y="118.107686"/>
     <use style="fill:#8c8c8c;stroke:#8c8c8c;" x="209.759924" xlink:href="#mc69ea52742" y="180.420937"/>
     <use style="fill:#8c8c8c;stroke:#8c8c8c;" x="240.590305" xlink:href="#mc69ea52742" y="115.604885"/>
     <use style="fill:#8c8c8c;stroke:#8c8c8c;" x="246.108258" xlink:href="#mc69ea52742" y="107.499124"/>
     <use style="fill:#8c8c8c;stroke:#8c8c8c;" x="215.71745" xlink:href="#mc69ea52742" y="154.833736"/>
     <use style="fill:#8c8c8c;stroke:#8c8c8c;" x="204.477771" xlink:href="#mc69ea52742" y="162.511301"/>
     <use style="fill:#8c8c8c;stroke:#8c8c8c;" x="215.183343" xlink:href="#mc69ea52742" y="193.683202"/>
     <use style="fill:#8c8c8c;stroke:#8c8c8c;" x="186.798437" xlink:href="#mc69ea52742" y="182.694895"/>
     <use style="fill:#8c8c8c;stroke:#8c8c8c;" x="204.130822" xlink:href="#mc69ea52742" y="171.631144"/>
     <use style="fill:#8c8c8c;stroke:#8c8c8c;" x="216.55162" xlink:href="#mc69ea52742" y="159.514157"/>
     <use style="fill:#8c8c8c;stroke:#8c8c8c;" x="201.770451" xlink:href="#mc69ea52742" y="182.275083"/>
     <use style="fill:#8c8c8c;stroke:#8c8c8c;" x="218.443008" xlink:href="#mc69ea52742" y="134.944802"/>
     <use style="fill:#8c8c8c;stroke:#8c8c8c;" x="252.14722" xlink:href="#mc69ea52742" y="86.897758"/>
     <use style="fill:#8c8c8c;stroke:#8c8c8c;" x="209.261812" xlink:href="#mc69ea52742" y="193.122491"/>
     <use style="fill:#8c8c8c;stroke:#8c8c8c;" x="205.522223" xlink:href="#mc69ea52742" y="175.683005"/>
     <use style="fill:#8c8c8c;stroke:#8c8c8c;" x="252.556435" xlink:href="#mc69ea52742" y="122.388212"/>
     <use style="fill:#8c8c8c;stroke:#8c8c8c;" x="200.134474" xlink:href="#mc69ea52742" y="166.893847"/>
     <use style="fill:#8c8c8c;stroke:#8c8c8c;" x="228.696415" xlink:href="#mc69ea52742" y="84.231634"/>
     <use style="fill:#8c8c8c;stroke:#8c8c8c;" x="230.031015" xlink:href="#mc69ea52742" y="58.654181"/>
     <use style="fill:#8c8c8c;stroke:#8c8c8c;" x="190.781441" xlink:href="#mc69ea52742" y="165.883708"/>
     <use style="fill:#8c8c8c;stroke:#8c8c8c;" x="197.241261" xlink:href="#mc69ea52742" y="157.121925"/>
     <use style="fill:#8c8c8c;stroke:#8c8c8c;" x="209.801993" xlink:href="#mc69ea52742" y="155.716708"/>
     <use style="fill:#8c8c8c;stroke:#8c8c8c;" x="184.425726" xlink:href="#mc69ea52742" y="208.952477"/>
     <use style="fill:#8c8c8c;stroke:#8c8c8c;" x="222.413965" xlink:href="#mc69ea52742" y="143.655185"/>
     <use style="fill:#8c8c8c;stroke:#8c8c8c;" x="203.948471" xlink:href="#mc69ea52742" y="187.602722"/>
     <use style="fill:#8c8c8c;stroke:#8c8c8c;" x="189.556911" xlink:href="#mc69ea52742" y="179.533537"/>
     <use style="fill:#8c8c8c;stroke:#8c8c8c;" x="164.188566" xlink:href="#mc69ea52742" y="228.892738"/>
     <use style="fill:#8c8c8c;stroke:#8c8c8c;" x="200.322084" xlink:href="#mc69ea52742" y="145.443769"/>
     <use style="fill:#8c8c8c;stroke:#8c8c8c;" x="197.609918" xlink:href="#mc69ea52742" y="173.777334"/>
     <use style="fill:#8c8c8c;stroke:#8c8c8c;" x="205.856649" xlink:href="#mc69ea52742" y="198.785141"/>
     <use style="fill:#8c8c8c;stroke:#8c8c8c;" x="210.552828" xlink:href="#mc69ea52742" y="163.85142"/>
     <use style="fill:#8c8c8c;stroke:#8c8c8c;" x="154.251814" xlink:href="#mc69ea52742" y="248.215423"/>
     <use style="fill:#8c8c8c;stroke:#8c8c8c;" x="204.619471" xlink:href="#mc69ea52742" y="158.357232"/>
     <use style="fill:#8c8c8c;stroke:#8c8c8c;" x="196.277208" xlink:href="#mc69ea52742" y="144.411308"/>
     <use style="fill:#8c8c8c;stroke:#8c8c8c;" x="190.035099" xlink:href="#mc69ea52742" y="175.445628"/>
     <use style="fill:#8c8c8c;stroke:#8c8c8c;" x="201.888743" xlink:href="#mc69ea52742" y="179.971324"/>
     <use style="fill:#8c8c8c;stroke:#8c8c8c;" x="199.02187" xlink:href="#mc69ea52742" y="155.714737"/>
     <use style="fill:#8c8c8c;stroke:#8c8c8c;" x="227.76447" xlink:href="#mc69ea52742" y="92.025077"/>
     <use style="fill:#8c8c8c;stroke:#8c8c8c;" x="208.93465" xlink:href="#mc69ea52742" y="140.124654"/>
     <use style="fill:#8c8c8c;stroke:#8c8c8c;" x="230.843252" xlink:href="#mc69ea52742" y="110.343237"/>
     <use style="fill:#8c8c8c;stroke:#8c8c8c;" x="201.172551" xlink:href="#mc69ea52742" y="121.001353"/>
     <use style="fill:#8c8c8c;stroke:#8c8c8c;" x="203.093322" xlink:href="#mc69ea52742" y="164.335199"/>
     <use style="fill:#8c8c8c;stroke:#8c8c8c;" x="194.871917" xlink:href="#mc69ea52742" y="215.808514"/>
     <use style="fill:#8c8c8c;stroke:#8c8c8c;" x="227.826181" xlink:href="#mc69ea52742" y="157.365687"/>
     <use style="fill:#8c8c8c;stroke:#8c8c8c;" x="194.74948" xlink:href="#mc69ea52742" y="153.13622"/>
     <use style="fill:#8c8c8c;stroke:#8c8c8c;" x="174.639866" xlink:href="#mc69ea52742" y="198.866854"/>
     <use style="fill:#8c8c8c;stroke:#8c8c8c;" x="209.427151" xlink:href="#mc69ea52742" y="172.450142"/>
     <use style="fill:#8c8c8c;stroke:#8c8c8c;" x="230.638093" xlink:href="#mc69ea52742" y="135.378101"/>
     <use style="fill:#8c8c8c;stroke:#8c8c8c;" x="186.947933" xlink:href="#mc69ea52742" y="185.444493"/>
     <use style="fill:#8c8c8c;stroke:#8c8c8c;" x="147.776179" xlink:href="#mc69ea52742" y="234.385762"/>
     <use style="fill:#8c8c8c;stroke:#8c8c8c;" x="205.799431" xlink:href="#mc69ea52742" y="129.065837"/>
     <use style="fill:#8c8c8c;stroke:#8c8c8c;" x="226.39676" xlink:href="#mc69ea52742" y="116.753924"/>
     <use style="fill:#8c8c8c;stroke:#8c8c8c;" x="167.571451" xlink:href="#mc69ea52742" y="231.110111"/>
     <use style="fill:#8c8c8c;stroke:#8c8c8c;" x="240.513149" xlink:href="#mc69ea52742" y="111.526928"/>
     <use style="fill:#8c8c8c;stroke:#8c8c8c;" x="221.30453" xlink:href="#mc69ea52742" y="147.256637"/>
     <use style="fill:#8c8c8c;stroke:#8c8c8c;" x="219.135482" xlink:href="#mc69ea52742" y="147.620157"/>
     <use style="fill:#8c8c8c;stroke:#8c8c8c;" x="216.636366" xlink:href="#mc69ea52742" y="147.214666"/>
     <use style="fill:#8c8c8c;stroke:#8c8c8c;" x="194.428003" xlink:href="#mc69ea52742" y="163.331504"/>
     <use style="fill:#8c8c8c;stroke:#8c8c8c;" x="208.062078" xlink:href="#mc69ea52742" y="163.698684"/>
     <use style="fill:#8c8c8c;stroke:#8c8c8c;" x="204.610019" xlink:href="#mc69ea52742" y="122.494289"/>
     <use style="fill:#8c8c8c;stroke:#8c8c8c;" x="213.514452" xlink:href="#mc69ea52742" y="138.124018"/>
     <use style="fill:#8c8c8c;stroke:#8c8c8c;" x="179.190781" xlink:href="#mc69ea52742" y="191.716336"/>
     <use style="fill:#8c8c8c;stroke:#8c8c8c;" x="159.723289" xlink:href="#mc69ea52742" y="210.367379"/>
     <use style="fill:#8c8c8c;stroke:#8c8c8c;" x="248.190377" xlink:href="#mc69ea52742" y="132.176436"/>
     <use style="fill:#8c8c8c;stroke:#8c8c8c;" x="171.851677" xlink:href="#mc69ea52742" y="211.805705"/>
     <use style="fill:#8c8c8c;stroke:#8c8c8c;" x="213.135164" xlink:href="#mc69ea52742" y="124.650899"/>
     <use style="fill:#8c8c8c;stroke:#8c8c8c;" x="194.427037" xlink:href="#mc69ea52742" y="194.035059"/>
     <use style="fill:#8c8c8c;stroke:#8c8c8c;" x="220.126052" xlink:href="#mc69ea52742" y="127.885251"/>
     <use style="fill:#8c8c8c;stroke:#8c8c8c;" x="193.180232" xlink:href="#mc69ea52742" y="149.637723"/>
     <use style="fill:#8c8c8c;stroke:#8c8c8c;" x="204.656835" xlink:href="#mc69ea52742" y="111.89721"/>
     <use style="fill:#8c8c8c;stroke:#8c8c8c;" x="221.920819" xlink:href="#mc69ea52742" y="176.235095"/>
     <use style="fill:#8c8c8c;stroke:#8c8c8c;" x="206.538407" xlink:href="#mc69ea52742" y="169.133843"/>
     <use style="fill:#8c8c8c;stroke:#8c8c8c;" x="233.95795" xlink:href="#mc69ea52742" y="109.246968"/>
     <use style="fill:#8c8c8c;stroke:#8c8c8c;" x="184.800551" xlink:href="#mc69ea52742" y="206.894309"/>
     <use style="fill:#8c8c8c;stroke:#8c8c8c;" x="222.454095" xlink:href="#mc69ea52742" y="174.219"/>
     <use style="fill:#8c8c8c;stroke:#8c8c8c;" x="254.326833" xlink:href="#mc69ea52742" y="53.04325"/>
     <use style="fill:#8c8c8c;stroke:#8c8c8c;" x="239.07848" xlink:href="#mc69ea52742" y="74.143007"/>
     <use style="fill:#8c8c8c;stroke:#8c8c8c;" x="230.71507" xlink:href="#mc69ea52742" y="138.02709"/>
     <use style="fill:#8c8c8c;stroke:#8c8c8c;" x="249.91161" xlink:href="#mc69ea52742" y="111.384729"/>
     <use style="fill:#8c8c8c;stroke:#8c8c8c;" x="199.904259" xlink:href="#mc69ea52742" y="138.993124"/>
     <use style="fill:#8c8c8c;stroke:#8c8c8c;" x="214.780775" xlink:href="#mc69ea52742" y="166.229026"/>
     <use style="fill:#8c8c8c;stroke:#8c8c8c;" x="244.383116" xlink:href="#mc69ea52742" y="123.997325"/>
     <use style="fill:#8c8c8c;stroke:#8c8c8c;" x="237.118528" xlink:href="#mc69ea52742" y="131.269778"/>
     <use style="fill:#8c8c8c;stroke:#8c8c8c;" x="220.75959" xlink:href="#mc69ea52742" y="136.968691"/>
     <use style="fill:#8c8c8c;stroke:#8c8c8c;" x="243.848672" xlink:href="#mc69ea52742" y="139.206831"/>
     <use style="fill:#8c8c8c;stroke:#8c8c8c;" x="165.558424" xlink:href="#mc69ea52742" y="229.971041"/>
     <use style="fill:#8c8c8c;stroke:#8c8c8c;" x="218.905805" xlink:href="#mc69ea52742" y="154.711969"/>
     <use style="fill:#8c8c8c;stroke:#8c8c8c;" x="229.562891" xlink:href="#mc69ea52742" y="55.068054"/>
     <use style="fill:#8c8c8c;stroke:#8c8c8c;" x="187.408121" xlink:href="#mc69ea52742" y="157.459691"/>
     <use style="fill:#8c8c8c;stroke:#8c8c8c;" x="185.256944" xlink:href="#mc69ea52742" y="196.818591"/>
     <use style="fill:#8c8c8c;stroke:#8c8c8c;" x="199.964319" xlink:href="#mc69ea52742" y="205.943908"/>
     <use style="fill:#8c8c8c;stroke:#8c8c8c;" x="235.196541" xlink:href="#mc69ea52742" y="64.528505"/>
     <use style="fill:#8c8c8c;stroke:#8c8c8c;" x="172.76672" xlink:href="#mc69ea52742" y="219.020701"/>
     <use style="fill:#8c8c8c;stroke:#8c8c8c;" x="222.642954" xlink:href="#mc69ea52742" y="114.209954"/>
     <use style="fill:#8c8c8c;stroke:#8c8c8c;" x="221.585306" xlink:href="#mc69ea52742" y="138.920159"/>
     <use style="fill:#8c8c8c;stroke:#8c8c8c;" x="225.015199" xlink:href="#mc69ea52742" y="148.869136"/>
     <use style="fill:#8c8c8c;stroke:#8c8c8c;" x="214.51632" xlink:href="#mc69ea52742" y="203.329142"/>
     <use style="fill:#8c8c8c;stroke:#8c8c8c;" x="220.336914" xlink:href="#mc69ea52742" y="126.554334"/>
     <use style="fill:#8c8c8c;stroke:#8c8c8c;" x="238.344649" xlink:href="#mc69ea52742" y="139.708946"/>
     <use style="fill:#8c8c8c;stroke:#8c8c8c;" x="244.095323" xlink:href="#mc69ea52742" y="112.93691"/>
     <use style="fill:#8c8c8c;stroke:#8c8c8c;" x="185.342079" xlink:href="#mc69ea52742" y="226.72985"/>
     <use style="fill:#8c8c8c;stroke:#8c8c8c;" x="235.637605" xlink:href="#mc69ea52742" y="183.544447"/>
     <use style="fill:#8c8c8c;stroke:#8c8c8c;" x="220.486398" xlink:href="#mc69ea52742" y="131.129673"/>
     <use style="fill:#8c8c8c;stroke:#8c8c8c;" x="224.390704" xlink:href="#mc69ea52742" y="128.135383"/>
     <use style="fill:#8c8c8c;stroke:#8c8c8c;" x="193.253071" xlink:href="#mc69ea52742" y="179.661084"/>
     <use style="fill:#8c8c8c;stroke:#8c8c8c;" x="203.897113" xlink:href="#mc69ea52742" y="159.231104"/>
     <use style="fill:#8c8c8c;stroke:#8c8c8c;" x="209.263027" xlink:href="#mc69ea52742" y="179.570043"/>
     <use style="fill:#8c8c8c;stroke:#8c8c8c;" x="221.741911" xlink:href="#mc69ea52742" y="104.590944"/>
     <use style="fill:#8c8c8c;stroke:#8c8c8c;" x="182.776503" xlink:href="#mc69ea52742" y="143.640292"/>
     <use style="fill:#8c8c8c;stroke:#8c8c8c;" x="145.393406" xlink:href="#mc69ea52742" y="222.111755"/>
     <use style="fill:#8c8c8c;stroke:#8c8c8c;" x="168.274938" xlink:href="#mc69ea52742" y="187.110247"/>
     <use style="fill:#8c8c8c;stroke:#8c8c8c;" x="221.68731" xlink:href="#mc69ea52742" y="144.659649"/>
     <use style="fill:#8c8c8c;stroke:#8c8c8c;" x="195.318802" xlink:href="#mc69ea52742" y="170.773076"/>
     <use style="fill:#8c8c8c;stroke:#8c8c8c;" x="245.109842" xlink:href="#mc69ea52742" y="61.077291"/>
     <use style="fill:#8c8c8c;stroke:#8c8c8c;" x="185.616869" xlink:href="#mc69ea52742" y="185.394158"/>
     <use style="fill:#8c8c8c;stroke:#8c8c8c;" x="231.81935" xlink:href="#mc69ea52742" y="147.709283"/>
     <use style="fill:#8c8c8c;stroke:#8c8c8c;" x="239.185409" xlink:href="#mc69ea52742" y="95.324247"/>
     <use style="fill:#8c8c8c;stroke:#8c8c8c;" x="209.312687" xlink:href="#mc69ea52742" y="156.606854"/>
     <use style="fill:#8c8c8c;stroke:#8c8c8c;" x="184.542526" xlink:href="#mc69ea52742" y="197.934983"/>
     <use style="fill:#8c8c8c;stroke:#8c8c8c;" x="199.060394" xlink:href="#mc69ea52742" y="112.998398"/>
     <use style="fill:#8c8c8c;stroke:#8c8c8c;" x="216.202484" xlink:href="#mc69ea52742" y="148.880407"/>
     <use style="fill:#8c8c8c;stroke:#8c8c8c;" x="181.185743" xlink:href="#mc69ea52742" y="187.987213"/>
     <use style="fill:#8c8c8c;stroke:#8c8c8c;" x="253.542553" xlink:href="#mc69ea52742" y="55.399886"/>
     <use style="fill:#8c8c8c;stroke:#8c8c8c;" x="216.253694" xlink:href="#mc69ea52742" y="144.575128"/>
     <use style="fill:#8c8c8c;stroke:#8c8c8c;" x="210.724902" xlink:href="#mc69ea52742" y="161.294576"/>
     <use style="fill:#8c8c8c;stroke:#8c8c8c;" x="225.506008" xlink:href="#mc69ea52742" y="140.406854"/>
     <use style="fill:#8c8c8c;stroke:#8c8c8c;" x="251.485221" xlink:href="#mc69ea52742" y="85.12864"/>
     <use style="fill:#8c8c8c;stroke:#8c8c8c;" x="223.012925" xlink:href="#mc69ea52742" y="129.970265"/>
     <use style="fill:#8c8c8c;stroke:#8c8c8c;" x="253.571867" xlink:href="#mc69ea52742" y="100.892295"/>
     <use style="fill:#8c8c8c;stroke:#8c8c8c;" x="171.968444" xlink:href="#mc69ea52742" y="223.721369"/>
     <use style="fill:#8c8c8c;stroke:#8c8c8c;" x="209.099257" xlink:href="#mc69ea52742" y="164.604134"/>
     <use style="fill:#8c8c8c;stroke:#8c8c8c;" x="205.025183" xlink:href="#mc69ea52742" y="147.568772"/>
     <use style="fill:#8c8c8c;stroke:#8c8c8c;" x="236.360719" xlink:href="#mc69ea52742" y="147.446361"/>
     <use style="fill:#8c8c8c;stroke:#8c8c8c;" x="242.430361" xlink:href="#mc69ea52742" y="132.671669"/>
     <use style="fill:#8c8c8c;stroke:#8c8c8c;" x="227.138368" xlink:href="#mc69ea52742" y="163.179406"/>
     <use style="fill:#8c8c8c;stroke:#8c8c8c;" x="193.280793" xlink:href="#mc69ea52742" y="184.130567"/>
     <use style="fill:#8c8c8c;stroke:#8c8c8c;" x="226.976777" xlink:href="#mc69ea52742" y="142.859841"/>
     <use style="fill:#8c8c8c;stroke:#8c8c8c;" x="192.071448" xlink:href="#mc69ea52742" y="136.439632"/>
     <use style="fill:#8c8c8c;stroke:#8c8c8c;" x="180.591999" xlink:href="#mc69ea52742" y="194.676761"/>
     <use style="fill:#8c8c8c;stroke:#8c8c8c;" x="285.872327" xlink:href="#mc69ea52742" y="10.837064"/>
     <use style="fill:#8c8c8c;stroke:#8c8c8c;" x="220.344601" xlink:href="#mc69ea52742" y="106.80436"/>
     <use style="fill:#8c8c8c;stroke:#8c8c8c;" x="216.846679" xlink:href="#mc69ea52742" y="145.564255"/>
     <use style="fill:#8c8c8c;stroke:#8c8c8c;" x="222.240669" xlink:href="#mc69ea52742" y="155.257779"/>
     <use style="fill:#8c8c8c;stroke:#8c8c8c;" x="186.080577" xlink:href="#mc69ea52742" y="167.328748"/>
     <use style="fill:#8c8c8c;stroke:#8c8c8c;" x="193.828823" xlink:href="#mc69ea52742" y="167.42884"/>
     <use style="fill:#8c8c8c;stroke:#8c8c8c;" x="153.48267" xlink:href="#mc69ea52742" y="211.472108"/>
     <use style="fill:#8c8c8c;stroke:#8c8c8c;" x="231.424945" xlink:href="#mc69ea52742" y="105.482008"/>
     <use style="fill:#8c8c8c;stroke:#8c8c8c;" x="247.508676" xlink:href="#mc69ea52742" y="106.343871"/>
     <use style="fill:#8c8c8c;stroke:#8c8c8c;" x="119.89621" xlink:href="#mc69ea52742" y="254.565315"/>
     <use style="fill:#8c8c8c;stroke:#8c8c8c;" x="227.530001" xlink:href="#mc69ea52742" y="141.125223"/>
     <use style="fill:#8c8c8c;stroke:#8c8c8c;" x="220.84768" xlink:href="#mc69ea52742" y="150.751571"/>
     <use style="fill:#8c8c8c;stroke:#8c8c8c;" x="201.827973" xlink:href="#mc69ea52742" y="164.123559"/>
     <use style="fill:#8c8c8c;stroke:#8c8c8c;" x="143.468239" xlink:href="#mc69ea52742" y="213.725502"/>
     <use style="fill:#8c8c8c;stroke:#8c8c8c;" x="207.636691" xlink:href="#mc69ea52742" y="150.434471"/>
     <use style="fill:#8c8c8c;stroke:#8c8c8c;" x="210.332719" xlink:href="#mc69ea52742" y="170.618083"/>
     <use style="fill:#8c8c8c;stroke:#8c8c8c;" x="268.666082" xlink:href="#mc69ea52742" y="43.866428"/>
     <use style="fill:#8c8c8c;stroke:#8c8c8c;" x="185.70451" xlink:href="#mc69ea52742" y="174.281146"/>
     <use style="fill:#8c8c8c;stroke:#8c8c8c;" x="222.503982" xlink:href="#mc69ea52742" y="166.720862"/>
     <use style="fill:#8c8c8c;stroke:#8c8c8c;" x="234.517465" xlink:href="#mc69ea52742" y="124.122396"/>
     <use style="fill:#8c8c8c;stroke:#8c8c8c;" x="206.765858" xlink:href="#mc69ea52742" y="162.614424"/>
     <use style="fill:#8c8c8c;stroke:#8c8c8c;" x="221.48099" xlink:href="#mc69ea52742" y="153.050456"/>
     <use style="fill:#8c8c8c;stroke:#8c8c8c;" x="187.684962" xlink:href="#mc69ea52742" y="182.338249"/>
     <use style="fill:#8c8c8c;stroke:#8c8c8c;" x="243.057927" xlink:href="#mc69ea52742" y="114.550289"/>
     <use style="fill:#8c8c8c;stroke:#8c8c8c;" x="226.411463" xlink:href="#mc69ea52742" y="121.695873"/>
     <use style="fill:#8c8c8c;stroke:#8c8c8c;" x="195.673691" xlink:href="#mc69ea52742" y="170.773697"/>
     <use style="fill:#8c8c8c;stroke:#8c8c8c;" x="239.338837" xlink:href="#mc69ea52742" y="148.786988"/>
     <use style="fill:#8c8c8c;stroke:#8c8c8c;" x="147.477473" xlink:href="#mc69ea52742" y="235.263386"/>
     <use style="fill:#8c8c8c;stroke:#8c8c8c;" x="270.767047" xlink:href="#mc69ea52742" y="67.095687"/>
     <use style="fill:#8c8c8c;stroke:#8c8c8c;" x="190.799388" xlink:href="#mc69ea52742" y="204.112278"/>
     <use style="fill:#8c8c8c;stroke:#8c8c8c;" x="209.984554" xlink:href="#mc69ea52742" y="143.898279"/>
     <use style="fill:#8c8c8c;stroke:#8c8c8c;" x="191.410965" xlink:href="#mc69ea52742" y="160.916955"/>
     <use style="fill:#8c8c8c;stroke:#8c8c8c;" x="196.526566" xlink:href="#mc69ea52742" y="175.394791"/>
     <use style="fill:#8c8c8c;stroke:#8c8c8c;" x="215.298793" xlink:href="#mc69ea52742" y="134.391004"/>
     <use style="fill:#8c8c8c;stroke:#8c8c8c;" x="226.194152" xlink:href="#mc69ea52742" y="154.994581"/>
     <use style="fill:#8c8c8c;stroke:#8c8c8c;" x="231.911318" xlink:href="#mc69ea52742" y="101.526563"/>
     <use style="fill:#8c8c8c;stroke:#8c8c8c;" x="229.725696" xlink:href="#mc69ea52742" y="96.114333"/>
     <use style="fill:#8c8c8c;stroke:#8c8c8c;" x="241.579721" xlink:href="#mc69ea52742" y="93.8893"/>
     <use style="fill:#8c8c8c;stroke:#8c8c8c;" x="213.29166" xlink:href="#mc69ea52742" y="157.202312"/>
     <use style="fill:#8c8c8c;stroke:#8c8c8c;" x="183.296468" xlink:href="#mc69ea52742" y="182.1597"/>
     <use style="fill:#8c8c8c;stroke:#8c8c8c;" x="214.005882" xlink:href="#mc69ea52742" y="161.438665"/>
     <use style="fill:#8c8c8c;stroke:#8c8c8c;" x="201.910577" xlink:href="#mc69ea52742" y="170.249244"/>
     <use style="fill:#8c8c8c;stroke:#8c8c8c;" x="255.060424" xlink:href="#mc69ea52742" y="60.258454"/>
     <use style="fill:#8c8c8c;stroke:#8c8c8c;" x="229.671958" xlink:href="#mc69ea52742" y="111.421419"/>
     <use style="fill:#8c8c8c;stroke:#8c8c8c;" x="225.542068" xlink:href="#mc69ea52742" y="139.468716"/>
     <use style="fill:#8c8c8c;stroke:#8c8c8c;" x="239.319144" xlink:href="#mc69ea52742" y="75.842933"/>
     <use style="fill:#8c8c8c;stroke:#8c8c8c;" x="189.002913" xlink:href="#mc69ea52742" y="191.444041"/>
     <use style="fill:#8c8c8c;stroke:#8c8c8c;" x="182.457727" xlink:href="#mc69ea52742" y="199.879976"/>
     <use style="fill:#8c8c8c;stroke:#8c8c8c;" x="185.389799" xlink:href="#mc69ea52742" y="225.536615"/>
     <use style="fill:#8c8c8c;stroke:#8c8c8c;" x="206.793772" xlink:href="#mc69ea52742" y="176.443289"/>
     <use style="fill:#8c8c8c;stroke:#8c8c8c;" x="169.033553" xlink:href="#mc69ea52742" y="229.995809"/>
     <use style="fill:#8c8c8c;stroke:#8c8c8c;" x="222.059675" xlink:href="#mc69ea52742" y="158.17026"/>
     <use style="fill:#8c8c8c;stroke:#8c8c8c;" x="233.051412" xlink:href="#mc69ea52742" y="107.218188"/>
     <use style="fill:#8c8c8c;stroke:#8c8c8c;" x="242.046978" xlink:href="#mc69ea52742" y="127.698458"/>
     <use style="fill:#8c8c8c;stroke:#8c8c8c;" x="202.517188" xlink:href="#mc69ea52742" y="192.479097"/>
     <use style="fill:#8c8c8c;stroke:#8c8c8c;" x="202.914739" xlink:href="#mc69ea52742" y="162.998311"/>
     <use style="fill:#8c8c8c;stroke:#8c8c8c;" x="218.235061" xlink:href="#mc69ea52742" y="157.710022"/>
     <use style="fill:#8c8c8c;stroke:#8c8c8c;" x="228.395668" xlink:href="#mc69ea52742" y="130.754248"/>
     <use style="fill:#8c8c8c;stroke:#8c8c8c;" x="241.066105" xlink:href="#mc69ea52742" y="123.84709"/>
     <use style="fill:#8c8c8c;stroke:#8c8c8c;" x="214.092724" xlink:href="#mc69ea52742" y="155.654218"/>
     <use style="fill:#8c8c8c;stroke:#8c8c8c;" x="247.554437" xlink:href="#mc69ea52742" y="105.935572"/>
     <use style="fill:#8c8c8c;stroke:#8c8c8c;" x="211.079419" xlink:href="#mc69ea52742" y="178.96435"/>
     <use style="fill:#8c8c8c;stroke:#8c8c8c;" x="235.748682" xlink:href="#mc69ea52742" y="127.395708"/>
     <use style="fill:#8c8c8c;stroke:#8c8c8c;" x="186.278479" xlink:href="#mc69ea52742" y="141.228437"/>
     <use style="fill:#8c8c8c;stroke:#8c8c8c;" x="239.606453" xlink:href="#mc69ea52742" y="97.001628"/>
     <use style="fill:#8c8c8c;stroke:#8c8c8c;" x="249.262944" xlink:href="#mc69ea52742" y="84.564803"/>
     <use style="fill:#8c8c8c;stroke:#8c8c8c;" x="186.158856" xlink:href="#mc69ea52742" y="164.700442"/>
     <use style="fill:#8c8c8c;stroke:#8c8c8c;" x="241.210704" xlink:href="#mc69ea52742" y="141.250871"/>
     <use style="fill:#8c8c8c;stroke:#8c8c8c;" x="235.590414" xlink:href="#mc69ea52742" y="116.4179"/>
     <use style="fill:#8c8c8c;stroke:#8c8c8c;" x="200.874958" xlink:href="#mc69ea52742" y="189.68742"/>
     <use style="fill:#8c8c8c;stroke:#8c8c8c;" x="226.358339" xlink:href="#mc69ea52742" y="101.871757"/>
     <use style="fill:#8c8c8c;stroke:#8c8c8c;" x="204.159421" xlink:href="#mc69ea52742" y="194.441505"/>
     <use style="fill:#8c8c8c;stroke:#8c8c8c;" x="196.667506" xlink:href="#mc69ea52742" y="193.551542"/>
     <use style="fill:#8c8c8c;stroke:#8c8c8c;" x="251.228469" xlink:href="#mc69ea52742" y="106.967769"/>
     <use style="fill:#8c8c8c;stroke:#8c8c8c;" x="230.107193" xlink:href="#mc69ea52742" y="152.214307"/>
     <use style="fill:#8c8c8c;stroke:#8c8c8c;" x="214.619209" xlink:href="#mc69ea52742" y="76.805157"/>
     <use style="fill:#8c8c8c;stroke:#8c8c8c;" x="222.459638" xlink:href="#mc69ea52742" y="154.845405"/>
     <use style="fill:#8c8c8c;stroke:#8c8c8c;" x="212.889888" xlink:href="#mc69ea52742" y="177.731784"/>
     <use style="fill:#8c8c8c;stroke:#8c8c8c;" x="214.077587" xlink:href="#mc69ea52742" y="158.42494"/>
     <use style="fill:#8c8c8c;stroke:#8c8c8c;" x="232.015391" xlink:href="#mc69ea52742" y="91.343897"/>
     <use style="fill:#8c8c8c;stroke:#8c8c8c;" x="193.300665" xlink:href="#mc69ea52742" y="176.007447"/>
     <use style="fill:#8c8c8c;stroke:#8c8c8c;" x="208.15087" xlink:href="#mc69ea52742" y="96.113193"/>
     <use style="fill:#8c8c8c;stroke:#8c8c8c;" x="261.241959" xlink:href="#mc69ea52742" y="118.889281"/>
     <use style="fill:#8c8c8c;stroke:#8c8c8c;" x="241.565" xlink:href="#mc69ea52742" y="112.033313"/>
     <use style="fill:#8c8c8c;stroke:#8c8c8c;" x="228.735154" xlink:href="#mc69ea52742" y="173.909772"/>
     <use style="fill:#8c8c8c;stroke:#8c8c8c;" x="189.715934" xlink:href="#mc69ea52742" y="211.105349"/>
     <use style="fill:#8c8c8c;stroke:#8c8c8c;" x="210.888335" xlink:href="#mc69ea52742" y="138.690635"/>
     <use style="fill:#8c8c8c;stroke:#8c8c8c;" x="225.923806" xlink:href="#mc69ea52742" y="106.393393"/>
     <use style="fill:#8c8c8c;stroke:#8c8c8c;" x="204.665452" xlink:href="#mc69ea52742" y="135.921153"/>
     <use style="fill:#8c8c8c;stroke:#8c8c8c;" x="197.646385" xlink:href="#mc69ea52742" y="156.694594"/>
     <use style="fill:#8c8c8c;stroke:#8c8c8c;" x="221.902956" xlink:href="#mc69ea52742" y="139.548425"/>
     <use style="fill:#8c8c8c;stroke:#8c8c8c;" x="224.379245" xlink:href="#mc69ea52742" y="103.719573"/>
     <use style="fill:#8c8c8c;stroke:#8c8c8c;" x="181.093786" xlink:href="#mc69ea52742" y="205.674208"/>
     <use style="fill:#8c8c8c;stroke:#8c8c8c;" x="133.243953" xlink:href="#mc69ea52742" y="253.506171"/>
     <use style="fill:#8c8c8c;stroke:#8c8c8c;" x="210.567498" xlink:href="#mc69ea52742" y="142.144544"/>
     <use style="fill:#8c8c8c;stroke:#8c8c8c;" x="222.614139" xlink:href="#mc69ea52742" y="160.602626"/>
     <use style="fill:#8c8c8c;stroke:#8c8c8c;" x="205.164152" xlink:href="#mc69ea52742" y="134.464072"/>
     <use style="fill:#8c8c8c;stroke:#8c8c8c;" x="233.468236" xlink:href="#mc69ea52742" y="173.111866"/>
     <use style="fill:#8c8c8c;stroke:#8c8c8c;" x="220.762268" xlink:href="#mc69ea52742" y="117.39502"/>
     <use style="fill:#8c8c8c;stroke:#8c8c8c;" x="207.571506" xlink:href="#mc69ea52742" y="130.759612"/>
     <use style="fill:#8c8c8c;stroke:#8c8c8c;" x="226.811969" xlink:href="#mc69ea52742" y="143.652291"/>
     <use style="fill:#8c8c8c;stroke:#8c8c8c;" x="218.882056" xlink:href="#mc69ea52742" y="156.008122"/>
     <use style="fill:#8c8c8c;stroke:#8c8c8c;" x="189.859896" xlink:href="#mc69ea52742" y="208.604673"/>
     <use style="fill:#8c8c8c;stroke:#8c8c8c;" x="209.672577" xlink:href="#mc69ea52742" y="191.5269"/>
     <use style="fill:#8c8c8c;stroke:#8c8c8c;" x="227.999218" xlink:href="#mc69ea52742" y="135.010562"/>
     <use style="fill:#8c8c8c;stroke:#8c8c8c;" x="220.836958" xlink:href="#mc69ea52742" y="165.794894"/>
     <use style="fill:#8c8c8c;stroke:#8c8c8c;" x="191.350118" xlink:href="#mc69ea52742" y="133.071243"/>
     <use style="fill:#8c8c8c;stroke:#8c8c8c;" x="188.235199" xlink:href="#mc69ea52742" y="193.634923"/>
     <use style="fill:#8c8c8c;stroke:#8c8c8c;" x="220.77217" xlink:href="#mc69ea52742" y="163.874016"/>
     <use style="fill:#8c8c8c;stroke:#8c8c8c;" x="190.652001" xlink:href="#mc69ea52742" y="210.999203"/>
     <use style="fill:#8c8c8c;stroke:#8c8c8c;" x="186.502086" xlink:href="#mc69ea52742" y="205.299177"/>
     <use style="fill:#8c8c8c;stroke:#8c8c8c;" x="224.596659" xlink:href="#mc69ea52742" y="178.049941"/>
     <use style="fill:#8c8c8c;stroke:#8c8c8c;" x="233.38862" xlink:href="#mc69ea52742" y="112.834187"/>
     <use style="fill:#8c8c8c;stroke:#8c8c8c;" x="215.447437" xlink:href="#mc69ea52742" y="119.811355"/>
     <use style="fill:#8c8c8c;stroke:#8c8c8c;" x="214.912308" xlink:href="#mc69ea52742" y="167.751967"/>
     <use style="fill:#8c8c8c;stroke:#8c8c8c;" x="221.903862" xlink:href="#mc69ea52742" y="150.977118"/>
     <use style="fill:#8c8c8c;stroke:#8c8c8c;" x="213.334308" xlink:href="#mc69ea52742" y="146.577063"/>
     <use style="fill:#8c8c8c;stroke:#8c8c8c;" x="196.61017" xlink:href="#mc69ea52742" y="197.965481"/>
     <use style="fill:#8c8c8c;stroke:#8c8c8c;" x="213.705033" xlink:href="#mc69ea52742" y="137.692333"/>
     <use style="fill:#8c8c8c;stroke:#8c8c8c;" x="214.428786" xlink:href="#mc69ea52742" y="137.251384"/>
     <use style="fill:#8c8c8c;stroke:#8c8c8c;" x="239.973832" xlink:href="#mc69ea52742" y="91.419952"/>
     <use style="fill:#8c8c8c;stroke:#8c8c8c;" x="183.893472" xlink:href="#mc69ea52742" y="170.420238"/>
     <use style="fill:#8c8c8c;stroke:#8c8c8c;" x="181.399538" xlink:href="#mc69ea52742" y="182.680994"/>
     <use style="fill:#8c8c8c;stroke:#8c8c8c;" x="178.025732" xlink:href="#mc69ea52742" y="221.587998"/>
     <use style="fill:#8c8c8c;stroke:#8c8c8c;" x="184.379506" xlink:href="#mc69ea52742" y="206.390548"/>
     <use style="fill:#8c8c8c;stroke:#8c8c8c;" x="216.785222" xlink:href="#mc69ea52742" y="131.098379"/>
     <use style="fill:#8c8c8c;stroke:#8c8c8c;" x="210.545131" xlink:href="#mc69ea52742" y="123.526576"/>
     <use style="fill:#8c8c8c;stroke:#8c8c8c;" x="238.945811" xlink:href="#mc69ea52742" y="65.236193"/>
     <use style="fill:#8c8c8c;stroke:#8c8c8c;" x="227.176279" xlink:href="#mc69ea52742" y="179.729368"/>
     <use style="fill:#8c8c8c;stroke:#8c8c8c;" x="237.456319" xlink:href="#mc69ea52742" y="117.016486"/>
     <use style="fill:#8c8c8c;stroke:#8c8c8c;" x="209.091819" xlink:href="#mc69ea52742" y="184.811983"/>
     <use style="fill:#8c8c8c;stroke:#8c8c8c;" x="175.949659" xlink:href="#mc69ea52742" y="219.415078"/>
     <use style="fill:#8c8c8c;stroke:#8c8c8c;" x="261.854615" xlink:href="#mc69ea52742" y="93.426163"/>
     <use style="fill:#8c8c8c;stroke:#8c8c8c;" x="150.66519" xlink:href="#mc69ea52742" y="229.758931"/>
     <use style="fill:#8c8c8c;stroke:#8c8c8c;" x="215.769125" xlink:href="#mc69ea52742" y="143.147784"/>
     <use style="fill:#8c8c8c;stroke:#8c8c8c;" x="207.433962" xlink:href="#mc69ea52742" y="136.502042"/>
     <use style="fill:#8c8c8c;stroke:#8c8c8c;" x="209.12799" xlink:href="#mc69ea52742" y="99.91665"/>
     <use style="fill:#8c8c8c;stroke:#8c8c8c;" x="224.401225" xlink:href="#mc69ea52742" y="104.210923"/>
     <use style="fill:#8c8c8c;stroke:#8c8c8c;" x="188.305825" xlink:href="#mc69ea52742" y="189.154214"/>
     <use style="fill:#8c8c8c;stroke:#8c8c8c;" x="236.244263" xlink:href="#mc69ea52742" y="81.844842"/>
     <use style="fill:#8c8c8c;stroke:#8c8c8c;" x="198.903214" xlink:href="#mc69ea52742" y="124.328994"/>
     <use style="fill:#8c8c8c;stroke:#8c8c8c;" x="198.925279" xlink:href="#mc69ea52742" y="170.090358"/>
     <use style="fill:#8c8c8c;stroke:#8c8c8c;" x="183.191835" xlink:href="#mc69ea52742" y="135.663328"/>
     <use style="fill:#8c8c8c;stroke:#8c8c8c;" x="224.237199" xlink:href="#mc69ea52742" y="171.938561"/>
     <use style="fill:#8c8c8c;stroke:#8c8c8c;" x="196.982532" xlink:href="#mc69ea52742" y="126.877646"/>
     <use style="fill:#8c8c8c;stroke:#8c8c8c;" x="244.093499" xlink:href="#mc69ea52742" y="44.973637"/>
     <use style="fill:#8c8c8c;stroke:#8c8c8c;" x="207.586572" xlink:href="#mc69ea52742" y="188.252965"/>
     <use style="fill:#8c8c8c;stroke:#8c8c8c;" x="215.697293" xlink:href="#mc69ea52742" y="150.504269"/>
     <use style="fill:#8c8c8c;stroke:#8c8c8c;" x="224.346054" xlink:href="#mc69ea52742" y="129.903044"/>
     <use style="fill:#8c8c8c;stroke:#8c8c8c;" x="208.229563" xlink:href="#mc69ea52742" y="154.263686"/>
     <use style="fill:#8c8c8c;stroke:#8c8c8c;" x="194.535011" xlink:href="#mc69ea52742" y="176.100911"/>
     <use style="fill:#8c8c8c;stroke:#8c8c8c;" x="196.441025" xlink:href="#mc69ea52742" y="185.896446"/>
    </g>
   </g>
   <g id="line2d_15">
    <path clip-path="url(#p33fd664f7e)" d="M 109.358266 244.730378 
L 110.994794 244.222576 
L 112.631321 243.249888 
L 114.267848 241.885321 
L 115.904375 240.21328 
L 117.540902 238.314269 
L 119.177429 236.257264 
L 120.813957 234.099086 
L 122.450484 231.887467 
L 124.087011 229.663303 
L 125.723538 227.460691 
L 127.360065 225.304091 
L 128.996592 223.205593 
L 130.633119 221.165231 
L 132.269647 219.174719 
L 133.906174 217.22326 
L 135.542701 215.302367 
L 137.179228 213.40716 
L 138.815755 211.535281 
L 140.452282 209.685538 
L 142.08881 207.857008 
L 143.725337 206.049278 
L 145.361864 204.262344 
L 146.998391 202.496268 
L 148.634918 200.750778 
L 150.271445 199.024967 
L 151.907973 197.317622 
L 153.5445 195.627649 
L 155.181027 193.954418 
L 156.817554 192.297862 
L 158.454081 190.658182 
L 160.090608 189.035437 
L 161.727136 187.429267 
L 163.363663 185.838847 
L 165.00019 184.26315 
L 166.636717 182.701251 
L 168.273244 181.152554 
L 169.909771 179.616729 
L 171.546299 178.093534 
L 173.182826 176.58267 
L 174.819353 175.083762 
L 176.45588 173.596431 
L 178.092407 172.12038 
L 179.728934 170.655376 
L 181.365461 169.201175 
L 183.001989 167.757467 
L 184.638516 166.323887 
L 186.275043 164.900082 
L 187.91157 163.485769 
L 189.548097 162.080753 
L 191.184624 160.684897 
L 192.821152 159.298078 
L 194.457679 157.920154 
L 196.094206 156.55093 
L 197.730733 155.190155 
L 199.36726 153.837531 
L 201.003787 152.492742 
L 202.640315 151.155506 
L 204.276842 149.825602 
L 205.913369 148.502875 
L 207.549896 147.18721 
L 209.186423 145.878508 
L 210.82295 144.576671 
L 212.459478 143.281602 
L 214.096005 141.993205 
L 215.732532 140.711373 
L 217.369059 139.435965 
L 219.005586 138.166808 
L 220.642113 136.903718 
L 222.27864 135.646551 
L 223.915168 134.39524 
L 225.551695 133.149794 
L 227.188222 131.910247 
L 228.824749 130.676571 
L 230.461276 129.448609 
L 232.097803 128.226074 
L 233.734331 127.008629 
L 235.370858 125.795996 
L 237.007385 124.588048 
L 238.643912 123.38483 
L 240.280439 122.186495 
L 241.916966 120.993201 
L 243.553494 119.805014 
L 245.190021 118.621872 
L 246.826548 117.443605 
L 248.463075 116.270003 
L 250.099602 115.100858 
L 251.736129 113.936002 
L 253.372657 112.775344 
L 255.009184 111.618952 
L 256.645711 110.467283 
L 258.282238 109.321805 
L 259.918765 108.186284 
L 261.555292 107.068999 
L 263.191819 105.985968 
L 264.828347 104.964479 
L 266.464874 104.045247 
L 268.101401 103.280792 
L 269.737928 102.728274 
L 271.374455 102.437424 
" style="fill:none;stroke:#ff0000;stroke-linecap:square;stroke-width:1.8;"/>
   </g>
   <g id="line2d_16">
    <path clip-path="url(#p33fd664f7e)" d="M 109.358266 266.979949 
L 110.994794 264.04195 
L 112.631321 261.116993 
L 114.267848 258.208819 
L 115.904375 255.320886 
L 117.540902 252.45635 
L 119.177429 249.61808 
L 120.813957 246.808622 
L 122.450484 244.030232 
L 124.087011 241.284885 
L 125.723538 238.574282 
L 127.360065 235.899881 
L 128.996592 233.262903 
L 130.633119 230.664369 
L 132.269647 228.105106 
L 133.906174 225.585779 
L 135.542701 223.106898 
L 137.179228 220.668838 
L 138.815755 218.271862 
L 140.452282 215.916132 
L 142.08881 213.601692 
L 143.725337 211.328524 
L 145.361864 209.096536 
L 146.998391 206.905552 
L 148.634918 204.755362 
L 150.271445 202.645687 
L 151.907973 200.576195 
L 153.5445 198.546539 
L 155.181027 196.556315 
L 156.817554 194.605071 
L 158.454081 192.692366 
L 160.090608 190.817698 
L 161.727136 188.980568 
L 163.363663 187.180436 
L 165.00019 185.416765 
L 166.636717 183.688999 
L 168.273244 181.996538 
L 169.909771 180.338832 
L 171.546299 178.715264 
L 173.182826 177.125265 
L 174.819353 175.568211 
L 176.45588 174.043522 
L 178.092407 172.550574 
L 179.728934 171.088762 
L 181.365461 169.657481 
L 183.001989 168.25615 
L 184.638516 166.884163 
L 186.275043 165.54091 
L 187.91157 164.225816 
L 189.548097 162.938281 
L 191.184624 161.677731 
L 192.821152 160.443603 
L 194.457679 159.235323 
L 196.094206 158.052317 
L 197.730733 156.894082 
L 199.36726 155.760007 
L 201.003787 154.649604 
L 202.640315 153.562359 
L 204.276842 152.497709 
L 205.913369 151.455178 
L 207.549896 150.43424 
L 209.186423 149.434454 
L 210.82295 148.455283 
L 212.459478 147.496286 
L 214.096005 146.556999 
L 215.732532 145.63697 
L 217.369059 144.735758 
L 219.005586 143.852923 
L 220.642113 142.988049 
L 222.27864 142.140697 
L 223.915168 141.310499 
L 225.551695 140.497027 
L 227.188222 139.699916 
L 228.824749 138.91876 
L 230.461276 138.153243 
L 232.097803 137.402923 
L 233.734331 136.667533 
L 235.370858 135.946656 
L 237.007385 135.240012 
L 238.643912 134.54722 
L 240.280439 133.868013 
L 241.916966 133.202035 
L 243.553494 132.54903 
L 245.190021 131.90868 
L 246.826548 131.280667 
L 248.463075 130.664735 
L 250.099602 130.060613 
L 251.736129 129.468021 
L 253.372657 128.886679 
L 255.009184 128.316365 
L 256.645711 127.756847 
L 258.282238 127.207832 
L 259.918765 126.669137 
L 261.555292 126.140468 
L 263.191819 125.621654 
L 264.828347 125.112475 
L 266.464874 124.612686 
L 268.101401 124.122104 
L 269.737928 123.640521 
L 271.374455 123.167729 
" style="fill:none;stroke:#00aeef;stroke-linecap:square;stroke-width:1.8;"/>
   </g>
   <g id="line2d_17">
    <path clip-path="url(#p33fd664f7e)" d="M 109.358266 219.593404 
L 110.994794 217.128129 
L 112.631321 214.655172 
L 114.267848 212.177368 
L 115.904375 209.697576 
L 117.540902 207.218629 
L 119.177429 204.743313 
L 120.813957 202.274348 
L 122.450484 199.814346 
L 124.087011 197.36585 
L 125.723538 194.931268 
L 127.360065 192.512874 
L 128.996592 190.112833 
L 130.633119 187.73315 
L 132.269647 185.375695 
L 133.906174 183.042218 
L 135.542701 180.73427 
L 137.179228 178.453307 
L 138.815755 176.200613 
L 140.452282 173.977362 
L 142.08881 171.784531 
L 143.725337 169.623007 
L 145.361864 167.493543 
L 146.998391 165.39673 
L 148.634918 163.333077 
L 150.271445 161.302975 
L 151.907973 159.30668 
L 153.5445 157.344388 
L 155.181027 155.416149 
L 156.817554 153.521974 
L 158.454081 151.661789 
L 160.090608 149.835412 
L 161.727136 148.042647 
L 163.363663 146.283213 
L 165.00019 144.556792 
L 166.636717 142.863016 
L 168.273244 141.201459 
L 169.909771 139.571704 
L 171.546299 137.973262 
L 173.182826 136.405656 
L 174.819353 134.868398 
L 176.45588 133.360937 
L 178.092407 131.882747 
L 179.728934 130.433278 
L 181.365461 129.011981 
L 183.001989 127.618316 
L 184.638516 126.251733 
L 186.275043 124.911671 
L 187.91157 123.59758 
L 189.548097 122.308895 
L 191.184624 121.045093 
L 192.821152 119.805634 
L 194.457679 118.590006 
L 196.094206 117.397634 
L 197.730733 116.228077 
L 199.36726 115.080748 
L 201.003787 113.955208 
L 202.640315 112.850967 
L 204.276842 111.767513 
L 205.913369 110.704403 
L 207.549896 109.661151 
L 209.186423 108.637363 
L 210.82295 107.632528 
L 212.459478 106.646265 
L 214.096005 105.678135 
L 215.732532 104.727734 
L 217.369059 103.794658 
L 219.005586 102.878529 
L 220.642113 101.978956 
L 222.27864 101.095558 
L 223.915168 100.228007 
L 225.551695 99.375898 
L 227.188222 98.538926 
L 228.824749 97.716725 
L 230.461276 96.909025 
L 232.097803 96.115434 
L 233.734331 95.335697 
L 235.370858 94.569483 
L 237.007385 93.81651 
L 238.643912 93.076474 
L 240.280439 92.349117 
L 241.916966 91.634145 
L 243.553494 90.931328 
L 245.190021 90.240395 
L 246.826548 89.561065 
L 248.463075 88.893119 
L 250.099602 88.236312 
L 251.736129 87.590423 
L 253.372657 86.955184 
L 255.009184 86.330411 
L 256.645711 85.715921 
L 258.282238 85.111445 
L 259.918765 84.516823 
L 261.555292 83.9318 
L 263.191819 83.356241 
L 264.828347 82.78995 
L 266.464874 82.232718 
L 268.101401 81.684376 
L 269.737928 81.144739 
L 271.374455 80.613674 
" style="fill:none;stroke:#00aeef;stroke-dasharray:6.66,2.88;stroke-dashoffset:0;stroke-width:1.8;"/>
   </g>
   <g id="line2d_18">
    <path clip-path="url(#p33fd664f7e)" d="M 109.358266 314.366492 
L 110.994794 310.955768 
L 112.631321 307.578815 
L 114.267848 304.240273 
L 115.904375 300.944198 
L 117.540902 297.694072 
L 119.177429 294.492847 
L 120.813957 291.342897 
L 122.450484 288.246116 
L 124.087011 285.20392 
L 125.723538 282.2173 
L 127.360065 279.286888 
L 128.996592 276.412976 
L 130.633119 273.595589 
L 132.269647 270.834514 
L 133.906174 268.129343 
L 135.542701 265.479523 
L 137.179228 262.884368 
L 138.815755 260.343109 
L 140.452282 257.854899 
L 142.08881 255.41885 
L 143.725337 253.03404 
L 145.361864 250.699533 
L 146.998391 248.414376 
L 148.634918 246.177641 
L 150.271445 243.988399 
L 151.907973 241.845708 
L 153.5445 239.748697 
L 155.181027 237.696479 
L 156.817554 235.688165 
L 158.454081 233.722948 
L 160.090608 231.799987 
L 161.727136 229.918489 
L 163.363663 228.077656 
L 165.00019 226.276739 
L 166.636717 224.514979 
L 168.273244 222.791623 
L 169.909771 221.10596 
L 171.546299 219.457269 
L 173.182826 217.844867 
L 174.819353 216.268027 
L 176.45588 214.726107 
L 178.092407 213.218401 
L 179.728934 211.744246 
L 181.365461 210.302982 
L 183.001989 208.893978 
L 184.638516 207.516587 
L 186.275043 206.170149 
L 187.91157 204.854052 
L 189.548097 203.567666 
L 191.184624 202.310369 
L 192.821152 201.081566 
L 194.457679 199.880647 
L 196.094206 198.707 
L 197.730733 197.560081 
L 199.36726 196.439261 
L 201.003787 195.344001 
L 202.640315 194.273745 
L 204.276842 193.2279 
L 205.913369 192.205953 
L 207.549896 191.207323 
L 209.186423 190.231544 
L 210.82295 189.278038 
L 212.459478 188.346307 
L 214.096005 187.435864 
L 215.732532 186.546206 
L 217.369059 185.676851 
L 219.005586 184.827316 
L 220.642113 183.997137 
L 222.27864 183.185835 
L 223.915168 182.392997 
L 225.551695 181.618157 
L 227.188222 180.860905 
L 228.824749 180.120795 
L 230.461276 179.397461 
L 232.097803 178.690412 
L 233.734331 177.999369 
L 235.370858 177.32383 
L 237.007385 176.663514 
L 238.643912 176.017967 
L 240.280439 175.38691 
L 241.916966 174.769925 
L 243.553494 174.166733 
L 245.190021 173.576966 
L 246.826548 173.000269 
L 248.463075 172.43635 
L 250.099602 171.884914 
L 251.736129 171.34562 
L 253.372657 170.818174 
L 255.009184 170.302312 
L 256.645711 169.797773 
L 258.282238 169.30422 
L 259.918765 168.821451 
L 261.555292 168.349136 
L 263.191819 167.887067 
L 264.828347 167.435 
L 266.464874 166.992653 
L 268.101401 166.559831 
L 269.737928 166.136302 
L 271.374455 165.72179 
" style="fill:none;stroke:#00aeef;stroke-dasharray:6.66,2.88;stroke-dashoffset:0;stroke-width:1.8;"/>
   </g>
   <g id="patch_9">
    <path d="M 109.358266 267.11781 
L 109.358266 10.7 
" style="fill:none;stroke:#000000;stroke-linecap:square;stroke-linejoin:miter;stroke-width:1.5;"/>
   </g>
   <g id="patch_10">
    <path d="M 109.358266 267.11781 
L 264.612865 267.11781 
" style="fill:none;stroke:#000000;stroke-linecap:square;stroke-linejoin:miter;stroke-width:1.5;"/>
   </g>
  </g>
 </g>
 <defs>
  <clipPath id="p5fbae0d26f">
   <rect height="256.41781" width="51.751533" x="39.606734" y="10.7"/>
  </clipPath>
  <clipPath id="pb4a9d84bc8">
   <rect height="256.41781" width="51.751533" x="282.612865" y="10.7"/>
  </clipPath>
  <clipPath id="p33fd664f7e">
   <rect height="256.41781" width="155.254598" x="109.358266" y="10.7"/>
  </clipPath>
 </defs>
</svg>
